<svg width="171" height="16" viewBox="0 0 171 16" fill="none" xmlns="http://www.w3.org/2000/svg">
<rect width="2.16882" height="15.1818" transform="translate(22.7732 0.818176)" fill="#F2F2F2"/>
<path d="M7.59112 0.818178C5.5779 0.818178 3.64713 1.61793 2.22356 3.0415C0.799996 4.46506 0.000244407 6.39583 0.000244231 8.40906C0.000244055 10.4223 0.799995 12.3531 2.22356 13.7766C3.64713 15.2002 5.5779 15.9999 7.59112 15.9999L7.59112 8.40906L7.59112 0.818178Z" fill="#F2F2F2"/>
<circle cx="15.1819" cy="8.40906" r="7.59088" transform="rotate(-90 15.1819 8.40906)" fill="#F2F2F2"/>
<path d="M43.3395 5.5305H41.0326C40.9439 5.03758 40.7788 4.60382 40.5373 4.22921C40.2957 3.85459 40 3.53666 39.65 3.27542C39.3 3.01417 38.9082 2.81701 38.4744 2.68392C38.0456 2.55083 37.5896 2.48429 37.1066 2.48429C36.2341 2.48429 35.4528 2.70364 34.7628 3.14233C34.0776 3.58102 33.5354 4.22428 33.1361 5.07209C32.7418 5.9199 32.5447 6.95502 32.5447 8.17745C32.5447 9.40973 32.7418 10.4498 33.1361 11.2976C33.5354 12.1454 34.0801 12.7862 34.7702 13.22C35.4602 13.6537 36.2366 13.8706 37.0992 13.8706C37.5773 13.8706 38.0308 13.8065 38.4596 13.6784C38.8934 13.5453 39.2853 13.3506 39.6352 13.0943C39.9852 12.838 40.2809 12.525 40.5225 12.1553C40.7689 11.7807 40.939 11.3518 41.0326 10.8688L43.3395 10.8762C43.2162 11.6205 42.9772 12.3056 42.6223 12.9316C42.2723 13.5527 41.8213 14.09 41.2692 14.5434C40.7221 14.992 40.0961 15.3395 39.3912 15.586C38.6864 15.8324 37.9174 15.9556 37.0844 15.9556C35.7732 15.9556 34.605 15.6451 33.5798 15.024C32.5545 14.398 31.7461 13.5034 31.1546 12.3401C30.5681 11.1768 30.2748 9.78928 30.2748 8.17745C30.2748 6.56069 30.5705 5.17314 31.162 4.01479C31.7535 2.85151 32.5619 1.95933 33.5872 1.33826C34.6124 0.712261 35.7782 0.39926 37.0844 0.39926C37.8878 0.39926 38.6371 0.515096 39.3321 0.746766C40.032 0.973506 40.6605 1.30869 41.2175 1.75231C41.7745 2.191 42.2353 2.72828 42.6001 3.36414C42.9649 3.99507 43.2113 4.71719 43.3395 5.5305Z" fill="#F2F2F2"/>
<path d="M49.6386 15.9778C48.5739 15.9778 47.6447 15.7338 46.8511 15.2458C46.0575 14.7579 45.4414 14.0752 45.0027 13.1978C44.564 12.3204 44.3447 11.2951 44.3447 10.122C44.3447 8.94393 44.564 7.91374 45.0027 7.03142C45.4414 6.14911 46.0575 5.46396 46.8511 4.97597C47.6447 4.48799 48.5739 4.24399 49.6386 4.24399C50.7032 4.24399 51.6324 4.48799 52.426 4.97597C53.2196 5.46396 53.8357 6.14911 54.2744 7.03142C54.7131 7.91374 54.9325 8.94393 54.9325 10.122C54.9325 11.2951 54.7131 12.3204 54.2744 13.1978C53.8357 14.0752 53.2196 14.7579 52.426 15.2458C51.6324 15.7338 50.7032 15.9778 49.6386 15.9778ZM49.6459 14.122C50.336 14.122 50.9078 13.9396 51.3613 13.5749C51.8148 13.2101 52.1499 12.7246 52.3668 12.1183C52.5886 11.512 52.6995 10.8441 52.6995 10.1146C52.6995 9.39002 52.5886 8.72458 52.3668 8.1183C52.1499 7.50709 51.8148 7.01664 51.3613 6.64695C50.9078 6.27726 50.336 6.09242 49.6459 6.09242C48.9509 6.09242 48.3742 6.27726 47.9158 6.64695C47.4623 7.01664 47.1247 7.50709 46.9029 8.1183C46.686 8.72458 46.5776 9.39002 46.5776 10.1146C46.5776 10.8441 46.686 11.512 46.9029 12.1183C47.1247 12.7246 47.4623 13.2101 47.9158 13.5749C48.3742 13.9396 48.9509 14.122 49.6459 14.122Z" fill="#F2F2F2"/>
<path d="M56.3591 15.7486V4.39187H58.4959V6.19593H58.6142C58.8212 5.58472 59.1859 5.10413 59.7084 4.75416C60.2358 4.39926 60.8323 4.22181 61.4977 4.22181C61.6357 4.22181 61.7984 4.22674 61.9857 4.2366C62.1779 4.24646 62.3283 4.25878 62.4367 4.27357V6.38817C62.348 6.36352 62.1902 6.33641 61.9635 6.30684C61.7368 6.27234 61.51 6.25508 61.2833 6.25508C60.7608 6.25508 60.295 6.36599 59.8859 6.5878C59.4817 6.80468 59.1613 7.10782 58.9247 7.49723C58.6881 7.8817 58.5698 8.32039 58.5698 8.81331V15.7486H56.3591Z" fill="#F2F2F2"/>
<path d="M63.7426 15.7486V4.39187H65.9533V15.7486H63.7426ZM64.859 2.63956C64.4745 2.63956 64.1443 2.5114 63.8683 2.25508C63.5971 1.99384 63.4616 1.6833 63.4616 1.32347C63.4616 0.958718 63.5971 0.648182 63.8683 0.391866C64.1443 0.130622 64.4745 0 64.859 0C65.2435 0 65.5713 0.130622 65.8424 0.391866C66.1184 0.648182 66.2564 0.958718 66.2564 1.32347C66.2564 1.6833 66.1184 1.99384 65.8424 2.25508C65.5713 2.5114 65.2435 2.63956 64.859 2.63956Z" fill="#F2F2F2"/>
<path d="M71.4082 16C70.6886 16 70.0379 15.8669 69.4563 15.6007C68.8747 15.3296 68.4138 14.9378 68.0737 14.4251C67.7385 13.9125 67.5709 13.284 67.5709 12.5397C67.5709 11.899 67.6941 11.3715 67.9406 10.9575C68.187 10.5434 68.5198 10.2157 68.9387 9.97412C69.3577 9.73259 69.826 9.55022 70.3435 9.42699C70.8611 9.30376 71.3885 9.21011 71.9258 9.14603C72.606 9.06716 73.1581 9.00308 73.582 8.95379C74.0059 8.89957 74.314 8.81331 74.5062 8.69501C74.6984 8.57671 74.7946 8.38447 74.7946 8.1183V8.06654C74.7946 7.42083 74.6122 6.92052 74.2474 6.56562C73.8876 6.21072 73.3503 6.03327 72.6356 6.03327C71.8913 6.03327 71.3047 6.1984 70.8759 6.52865C70.452 6.85397 70.1587 7.21627 69.996 7.61553L67.9184 7.14233C68.1649 6.45225 68.5247 5.89526 68.9979 5.47135C69.476 5.04251 70.0256 4.73198 70.6467 4.53974C71.2678 4.34258 71.9209 4.24399 72.606 4.24399C73.0595 4.24399 73.5401 4.29821 74.0478 4.40665C74.5604 4.51017 75.0386 4.7024 75.4822 4.98336C75.9307 5.26433 76.2979 5.66605 76.5838 6.18854C76.8697 6.7061 77.0127 7.37893 77.0127 8.20702V15.7486H74.8537V14.1959H74.765C74.622 14.4818 74.4076 14.7628 74.1217 15.0388C73.8358 15.3148 73.4686 15.5441 73.0201 15.7264C72.5715 15.9088 72.0342 16 71.4082 16ZM71.8888 14.2255C72.5 14.2255 73.0225 14.1047 73.4563 13.8632C73.895 13.6217 74.2277 13.3062 74.4544 12.9168C74.6861 12.5225 74.802 12.101 74.802 11.6525V10.1885C74.7231 10.2674 74.5703 10.3413 74.3435 10.4104C74.1217 10.4744 73.8679 10.5311 73.582 10.5804C73.2961 10.6248 73.0176 10.6667 72.7465 10.7061C72.4754 10.7406 72.2487 10.7702 72.0663 10.7948C71.6374 10.849 71.2456 10.9402 70.8907 11.0684C70.5407 11.1965 70.2597 11.3814 70.0478 11.6229C69.8408 11.8595 69.7373 12.175 69.7373 12.5693C69.7373 13.1165 69.9394 13.5305 70.3435 13.8115C70.7477 14.0875 71.2628 14.2255 71.8888 14.2255Z" fill="#F2F2F2"/>
<path d="M80.91 9.00555V15.7486H78.6993V4.39187H80.8213V6.2403H80.9618C81.223 5.63894 81.6321 5.15588 82.1891 4.79113C82.7511 4.42637 83.4584 4.24399 84.3111 4.24399C85.085 4.24399 85.7628 4.40665 86.3444 4.73198C86.926 5.05237 87.3771 5.5305 87.6975 6.16636C88.0178 6.80222 88.178 7.58842 88.178 8.52495V15.7486H85.9673V8.79113C85.9673 7.96796 85.7529 7.32471 85.3241 6.86137C84.8952 6.3931 84.3062 6.15897 83.557 6.15897C83.0443 6.15897 82.5884 6.26987 82.1891 6.49168C81.7948 6.71349 81.4818 7.03882 81.2501 7.46765C81.0234 7.89156 80.91 8.40419 80.91 9.00555Z" fill="#F2F2F2"/>
<path d="M89.885 15.7486V4.39187H92.0957V15.7486H89.885ZM91.0015 2.63956C90.617 2.63956 90.2867 2.5114 90.0107 2.25508C89.7396 1.99384 89.604 1.6833 89.604 1.32347C89.604 0.958718 89.7396 0.648182 90.0107 0.391866C90.2867 0.130622 90.617 0 91.0015 0C91.3859 0 91.7137 0.130622 91.9848 0.391866C92.2609 0.648182 92.3989 0.958718 92.3989 1.32347C92.3989 1.6833 92.2609 1.99384 91.9848 2.25508C91.7137 2.5114 91.3859 2.63956 91.0015 2.63956Z" fill="#F2F2F2"/>
<path d="M95.7023 15.7486H93.2771L98.7263 0.606285H101.366L106.815 15.7486H104.39L100.109 3.35675H99.9906L95.7023 15.7486ZM96.1089 9.81885H103.976V11.7412H96.1089V9.81885Z" fill="#F2F2F2"/>
<path d="M108 15.7486V4.39187H110.122V6.2403H110.263C110.499 5.6143 110.886 5.12631 111.423 4.77634C111.961 4.42144 112.604 4.24399 113.353 4.24399C114.112 4.24399 114.748 4.42144 115.261 4.77634C115.778 5.13124 116.16 5.61922 116.407 6.2403H116.525C116.796 5.63401 117.227 5.15096 117.819 4.79113C118.41 4.42637 119.115 4.24399 119.934 4.24399C120.964 4.24399 121.804 4.56685 122.455 5.21257C123.11 5.85829 123.438 6.83179 123.438 8.13309V15.7486H121.227V8.34011C121.227 7.57116 121.018 7.01417 120.599 6.66913C120.18 6.32409 119.68 6.15157 119.098 6.15157C118.378 6.15157 117.819 6.37338 117.42 6.81701C117.02 7.2557 116.821 7.82009 116.821 8.51017V15.7486H114.617V8.19963C114.617 7.58349 114.425 7.08811 114.041 6.71349C113.656 6.33888 113.156 6.15157 112.54 6.15157C112.121 6.15157 111.734 6.26248 111.379 6.48429C111.029 6.70117 110.746 7.00431 110.529 7.39372C110.317 7.78312 110.211 8.23413 110.211 8.74677V15.7486H108Z" fill="#F2F2F2"/>
<path d="M130.255 15.9778C129.136 15.9778 128.172 15.7388 127.364 15.2606C126.56 14.7776 125.939 14.0998 125.501 13.2274C125.067 12.35 124.85 11.3222 124.85 10.1442C124.85 8.9809 125.067 7.95564 125.501 7.06839C125.939 6.18115 126.551 5.4886 127.334 4.99076C128.123 4.49291 129.045 4.24399 130.1 4.24399C130.74 4.24399 131.361 4.34997 131.963 4.56192C132.564 4.77388 133.104 5.10659 133.582 5.56007C134.06 6.01356 134.437 6.60259 134.713 7.32717C134.989 8.04683 135.127 8.92175 135.127 9.95194V10.7357H126.1V9.07948H132.961C132.961 8.49784 132.843 7.98275 132.606 7.5342C132.369 7.08072 132.037 6.72335 131.608 6.46211C131.184 6.20086 130.686 6.07024 130.114 6.07024C129.493 6.07024 128.951 6.22304 128.488 6.52865C128.029 6.82933 127.674 7.22366 127.423 7.71165C127.177 8.1947 127.053 8.71966 127.053 9.28651V10.5804C127.053 11.3395 127.186 11.9852 127.453 12.5176C127.724 13.0499 128.101 13.4566 128.584 13.7375C129.067 14.0136 129.631 14.1516 130.277 14.1516C130.696 14.1516 131.078 14.0924 131.423 13.9741C131.768 13.8509 132.066 13.6685 132.318 13.427C132.569 13.1855 132.761 12.8872 132.894 12.5323L134.987 12.9094C134.819 13.5256 134.519 14.0653 134.085 14.5287C133.656 14.9871 133.116 15.3444 132.466 15.6007C131.82 15.8521 131.083 15.9778 130.255 15.9778Z" fill="#F2F2F2"/>
<path d="M141.224 15.9704C140.307 15.9704 139.489 15.7363 138.77 15.268C138.055 14.7948 137.493 14.122 137.084 13.2495C136.68 12.3722 136.477 11.3198 136.477 10.0924C136.477 8.86506 136.682 7.81516 137.091 6.9427C137.505 6.07024 138.072 5.40234 138.792 4.939C139.511 4.47566 140.327 4.24399 141.239 4.24399C141.944 4.24399 142.511 4.36229 142.94 4.59889C143.373 4.83056 143.709 5.10166 143.945 5.4122C144.187 5.72274 144.374 5.9963 144.507 6.2329H144.64V0.606285H146.851V15.7486H144.692V13.9815H144.507C144.374 14.223 144.182 14.4991 143.93 14.8096C143.684 15.1201 143.344 15.3913 142.91 15.6229C142.476 15.8546 141.914 15.9704 141.224 15.9704ZM141.712 14.085C142.348 14.085 142.885 13.9174 143.324 13.5823C143.768 13.2421 144.103 12.7714 144.33 12.1701C144.561 11.5687 144.677 10.8688 144.677 10.0702C144.677 9.28158 144.564 8.5915 144.337 8C144.11 7.4085 143.778 6.94763 143.339 6.61738C142.9 6.28712 142.358 6.122 141.712 6.122C141.047 6.122 140.492 6.29452 140.049 6.63956C139.605 6.9846 139.27 7.45533 139.043 8.05176C138.821 8.64818 138.71 9.32101 138.71 10.0702C138.71 10.8293 138.824 11.512 139.051 12.1183C139.277 12.7246 139.612 13.2052 140.056 13.5601C140.505 13.91 141.057 14.085 141.712 14.085Z" fill="#F2F2F2"/>
<path d="M153.643 15.9778C152.524 15.9778 151.56 15.7388 150.752 15.2606C149.948 14.7776 149.327 14.0998 148.889 13.2274C148.455 12.35 148.238 11.3222 148.238 10.1442C148.238 8.9809 148.455 7.95564 148.889 7.06839C149.327 6.18115 149.939 5.4886 150.722 4.99076C151.511 4.49291 152.433 4.24399 153.488 4.24399C154.128 4.24399 154.749 4.34997 155.351 4.56192C155.952 4.77388 156.492 5.10659 156.97 5.56007C157.448 6.01356 157.825 6.60259 158.101 7.32717C158.377 8.04683 158.515 8.92175 158.515 9.95194V10.7357H149.488V9.07948H156.349C156.349 8.49784 156.231 7.98275 155.994 7.5342C155.757 7.08072 155.425 6.72335 154.996 6.46211C154.572 6.20086 154.074 6.07024 153.502 6.07024C152.881 6.07024 152.339 6.22304 151.876 6.52865C151.417 6.82933 151.062 7.22366 150.811 7.71165C150.565 8.1947 150.441 8.71966 150.441 9.28651V10.5804C150.441 11.3395 150.574 11.9852 150.841 12.5176C151.112 13.0499 151.489 13.4566 151.972 13.7375C152.455 14.0136 153.019 14.1516 153.665 14.1516C154.084 14.1516 154.466 14.0924 154.811 13.9741C155.156 13.8509 155.454 13.6685 155.706 13.427C155.957 13.1855 156.149 12.8872 156.282 12.5323L158.375 12.9094C158.207 13.5256 157.907 14.0653 157.473 14.5287C157.044 14.9871 156.504 15.3444 155.854 15.6007C155.208 15.8521 154.471 15.9778 153.643 15.9778Z" fill="#F2F2F2"/>
<path d="M165.145 15.9778C164.08 15.9778 163.151 15.7338 162.357 15.2458C161.564 14.7579 160.947 14.0752 160.509 13.1978C160.07 12.3204 159.851 11.2951 159.851 10.122C159.851 8.94393 160.07 7.91374 160.509 7.03142C160.947 6.14911 161.564 5.46396 162.357 4.97597C163.151 4.48799 164.08 4.24399 165.145 4.24399C166.209 4.24399 167.138 4.48799 167.932 4.97597C168.726 5.46396 169.342 6.14911 169.781 7.03142C170.219 7.91374 170.439 8.94393 170.439 10.122C170.439 11.2951 170.219 12.3204 169.781 13.1978C169.342 14.0752 168.726 14.7579 167.932 15.2458C167.138 15.7338 166.209 15.9778 165.145 15.9778ZM165.152 14.122C165.842 14.122 166.414 13.9396 166.867 13.5749C167.321 13.2101 167.656 12.7246 167.873 12.1183C168.095 11.512 168.206 10.8441 168.206 10.1146C168.206 9.39002 168.095 8.72458 167.873 8.1183C167.656 7.50709 167.321 7.01664 166.867 6.64695C166.414 6.27726 165.842 6.09242 165.152 6.09242C164.457 6.09242 163.88 6.27726 163.422 6.64695C162.968 7.01664 162.631 7.50709 162.409 8.1183C162.192 8.72458 162.084 9.39002 162.084 10.1146C162.084 10.8441 162.192 11.512 162.409 12.1183C162.631 12.7246 162.968 13.2101 163.422 13.5749C163.88 13.9396 164.457 14.122 165.152 14.122Z" fill="#F2F2F2"/>
</svg>
