<svg width="171" height="24" viewBox="0 0 171 24" fill="none" xmlns="http://www.w3.org/2000/svg">
<path d="M7.59082 19.5918C5.57779 19.5918 3.64715 18.7925 2.22363 17.3691C0.800067 15.9456 -1.76002e-07 14.0142 0 12.001C4.8768e-05 9.98782 0.80011 8.05731 2.22363 6.63379C3.64718 5.21028 5.57764 4.41017 7.59082 4.41016V19.5918ZM24.9434 19.5898H22.7734V12.0791C22.7316 16.2355 19.3509 19.5918 15.1846 19.5918C10.9923 19.5918 7.59375 16.1933 7.59375 12.001C7.59385 7.80875 10.9923 4.41019 15.1846 4.41016C19.3508 4.41016 22.7314 7.7666 22.7734 11.9229V4.41016H24.9434V19.5898Z" fill="#F2F2F3"/>
<path d="M72.2686 8.24414C72.722 8.24414 73.2032 8.29781 73.7109 8.40625C74.2234 8.50976 74.7011 8.70258 75.1445 8.9834C75.593 9.26432 75.9602 9.66611 76.2461 10.1885C76.532 10.706 76.6758 11.3789 76.6758 12.207V19.749H74.5166V18.1963H74.4277C74.2848 18.4821 74.07 18.7631 73.7842 19.0391C73.4983 19.315 73.131 19.5442 72.6826 19.7266C72.2342 19.9089 71.6971 20 71.0713 20C70.3517 20 69.7008 19.8667 69.1191 19.6006C68.5375 19.3295 68.0764 18.9374 67.7363 18.4248C67.4013 17.9123 67.2334 17.2841 67.2334 16.54C67.2334 15.8993 67.3571 15.3711 67.6035 14.957C67.8499 14.5432 68.1828 14.216 68.6016 13.9746C69.0205 13.7331 69.4884 13.55 70.0059 13.4268C70.5234 13.3035 71.0516 13.2106 71.5889 13.1465C72.269 13.0676 72.8213 13.0034 73.2451 12.9541C73.6687 12.8999 73.9768 12.8135 74.1689 12.6953C74.3612 12.577 74.457 12.3843 74.457 12.1182V12.0664C74.457 11.4208 74.2749 10.9203 73.9102 10.5654C73.5503 10.2106 73.0125 10.0332 72.2979 10.0332C71.554 10.0333 70.9678 10.1984 70.5391 10.5283C70.1153 10.8535 69.8219 11.2161 69.6592 11.6152L67.5811 11.1426C67.8274 10.4527 68.1872 9.89554 68.6602 9.47168C69.1383 9.04284 69.6885 8.73228 70.3096 8.54004C70.9306 8.34291 71.5835 8.24416 72.2686 8.24414ZM49.3018 8.24414C50.3662 8.24421 51.2954 8.4877 52.0889 8.97559C52.8825 9.46357 53.4988 10.1489 53.9375 11.0312C54.3762 11.9136 54.5947 12.944 54.5947 14.1221C54.5947 15.2952 54.3762 16.3209 53.9375 17.1982C53.4988 18.0755 52.8824 18.7581 52.0889 19.2461C51.2954 19.734 50.3662 19.9775 49.3018 19.9775C48.2371 19.9775 47.3073 19.7341 46.5137 19.2461C45.7202 18.7581 45.1037 18.0755 44.665 17.1982C44.2264 16.3209 44.0078 15.2952 44.0078 14.1221C44.0078 12.944 44.2263 11.9136 44.665 11.0312C45.1037 10.1489 45.7201 9.46357 46.5137 8.97559C47.3073 8.48762 48.2371 8.24414 49.3018 8.24414ZM129.763 8.24414C130.403 8.24419 131.024 8.34975 131.625 8.56152C132.226 8.77348 132.767 9.10707 133.245 9.56055C133.723 10.014 134.1 10.6028 134.376 11.3271C134.652 12.0468 134.79 12.922 134.79 13.9521V14.7354H126.72C126.737 15.4277 126.867 16.0218 127.115 16.5176C127.386 17.0498 127.763 17.4564 128.246 17.7373C128.729 18.0133 129.294 18.1513 129.939 18.1514C130.358 18.1514 130.741 18.0929 131.086 17.9746C131.431 17.8514 131.729 17.6683 131.98 17.4268C132.232 17.1853 132.424 16.887 132.557 16.5322L134.649 16.9092C134.482 17.5253 134.181 18.065 133.747 18.5283C133.318 18.9867 132.779 19.3443 132.128 19.6006C131.482 19.8519 130.746 19.9775 129.918 19.9775C128.799 19.9775 127.835 19.7389 127.026 19.2607C126.223 18.7777 125.602 18.0999 125.163 17.2275C124.729 16.3502 124.513 15.3224 124.513 14.1445C124.513 12.9813 124.729 11.9556 125.163 11.0684C125.602 10.1812 126.213 9.48905 126.997 8.99121C127.786 8.49337 128.708 8.24414 129.763 8.24414ZM153.15 8.24414C153.791 8.24415 154.412 8.34958 155.014 8.56152C155.615 8.77348 156.155 9.10707 156.633 9.56055C157.111 10.014 157.488 10.6028 157.764 11.3271C158.04 12.0468 158.178 12.922 158.178 13.9521V14.7354H150.107C150.124 15.4277 150.255 16.0219 150.503 16.5176C150.774 17.0499 151.152 17.4563 151.635 17.7373C152.118 18.0133 152.682 18.1514 153.328 18.1514C153.747 18.1513 154.129 18.0928 154.474 17.9746C154.819 17.8514 155.117 17.6683 155.368 17.4268C155.62 17.1852 155.812 16.8871 155.945 16.5322L158.037 16.9092C157.87 17.5252 157.569 18.065 157.136 18.5283C156.707 18.9867 156.167 19.3443 155.517 19.6006C154.871 19.852 154.134 19.9775 153.306 19.9775C152.187 19.9775 151.223 19.7387 150.415 19.2607C149.612 18.7777 148.99 18.0999 148.552 17.2275C148.118 16.3502 147.9 15.3224 147.9 14.1445C147.9 12.9813 148.118 11.9556 148.552 11.0684C148.99 10.1814 149.601 9.48901 150.385 8.99121C151.173 8.49337 152.096 8.24414 153.15 8.24414ZM164.808 8.24414C165.872 8.24418 166.801 8.48773 167.595 8.97559C168.388 9.46355 169.005 10.149 169.443 11.0312C169.882 11.9136 170.102 12.944 170.102 14.1221C170.102 15.2952 169.882 16.3209 169.443 17.1982C169.005 18.0755 168.388 18.7582 167.595 19.2461C166.801 19.734 165.872 19.9775 164.808 19.9775C163.743 19.9775 162.813 19.7341 162.02 19.2461C161.226 18.7582 160.611 18.0753 160.172 17.1982C159.733 16.3209 159.514 15.2952 159.514 14.1221C159.514 12.944 159.733 11.9136 160.172 11.0312C160.611 10.1491 161.226 9.46351 162.02 8.97559C162.813 8.4876 163.743 8.24414 164.808 8.24414ZM146.514 19.749H144.354V17.9814H144.17C144.037 18.223 143.844 18.499 143.593 18.8096C143.346 19.1201 143.006 19.3914 142.572 19.623C142.139 19.8546 141.577 19.9707 140.887 19.9707C139.97 19.9707 139.152 19.7358 138.433 19.2676C137.718 18.7944 137.155 18.1223 136.746 17.25C136.342 16.3727 136.141 15.32 136.141 14.0928C136.141 12.8654 136.345 11.8148 136.754 10.9424C137.168 10.0702 137.735 9.40273 138.454 8.93945C139.174 8.47618 139.99 8.24421 140.901 8.24414C141.606 8.24414 142.174 8.36203 142.603 8.59863C143.036 8.83023 143.371 9.1017 143.607 9.41211C143.849 9.72251 144.037 9.99589 144.17 10.2324H144.303V4.60645H146.514V19.749ZM36.7471 4.39941C37.5505 4.39941 38.3001 4.5154 38.9951 4.74707C39.6948 4.97376 40.3231 5.30855 40.8799 5.75195C41.4369 6.19065 41.8979 6.7284 42.2627 7.36426C42.6274 7.99511 42.8738 8.71708 43.002 9.53027H40.6953C40.6066 9.03758 40.4416 8.60398 40.2002 8.22949C39.9587 7.85488 39.6625 7.53664 39.3125 7.27539C38.9626 7.01421 38.5704 6.81666 38.1367 6.68359C37.7081 6.55063 37.2523 6.4844 36.7695 6.48438C35.8971 6.48438 35.1158 6.70393 34.4258 7.14258C33.7406 7.58127 33.1981 8.22445 32.7988 9.07227C32.4045 9.92005 32.207 10.9554 32.207 12.1777C32.2071 13.4099 32.4045 14.4501 32.7988 15.2979C33.198 16.1454 33.7427 16.786 34.4326 17.2197C35.1226 17.6535 35.8992 17.8711 36.7617 17.8711C37.2397 17.8711 37.6933 17.8068 38.1221 17.6787C38.5557 17.5457 38.948 17.3509 39.2979 17.0947C39.6478 16.8384 39.944 16.525 40.1855 16.1553C40.4319 15.7808 40.6017 15.352 40.6953 14.8691L43.002 14.876C42.8787 15.6203 42.64 16.3057 42.2852 16.9316C41.9352 17.5527 41.4837 18.0895 40.9316 18.543C40.3845 18.9915 39.7586 19.3395 39.0537 19.5859C38.3489 19.8323 37.58 19.9561 36.7471 19.9561C35.4359 19.956 34.2674 19.6455 33.2422 19.0244C32.2169 18.3984 31.4089 17.5031 30.8174 16.3398C30.2309 15.1767 29.9375 13.7893 29.9375 12.1777C29.9375 10.561 30.2337 9.173 30.8252 8.01465C31.4167 6.85151 32.2248 5.95891 33.25 5.33789C34.2752 4.712 35.441 4.39942 36.7471 4.39941ZM61.6484 8.23633C61.8407 8.24619 61.9912 8.25865 62.0996 8.27344V10.3877C62.0109 10.363 61.8527 10.3362 61.626 10.3066C61.3994 10.2722 61.1728 10.2549 60.9463 10.2549C60.4239 10.2549 59.9579 10.3661 59.5488 10.5879C59.1448 10.8047 58.8245 11.1078 58.5879 11.4971C58.3513 11.8815 58.2324 12.3206 58.2324 12.8135V19.749H56.0215V8.3916H58.1582V10.1963H58.2773C58.4844 9.58508 58.8486 9.10388 59.3711 8.75391C59.8984 8.39909 60.4949 8.22173 61.1602 8.22168C61.2982 8.22168 61.4611 8.22647 61.6484 8.23633ZM65.6162 19.749H63.4053V8.3916H65.6162V19.749ZM83.9736 8.24414C84.7475 8.24414 85.4252 8.40711 86.0068 8.73242C86.5884 9.05278 87.04 9.53026 87.3604 10.166C87.6807 10.8019 87.8408 11.5889 87.8408 12.5254V19.749H85.6299V12.791C85.6299 11.9679 85.4151 11.3246 84.9863 10.8613C84.5575 10.3932 83.9688 10.1592 83.2197 10.1592C82.7071 10.1592 82.2508 10.2694 81.8516 10.4912C81.4572 10.713 81.1448 11.0389 80.9131 11.4678C80.6863 11.8917 80.5723 12.4045 80.5723 13.0059V19.749H78.3623V8.3916H80.4844V10.2402H80.624C80.8852 9.63893 81.2946 9.15576 81.8516 8.79102C82.4134 8.42629 83.121 8.24417 83.9736 8.24414ZM91.7588 19.749H89.5479V8.3916H91.7588V19.749ZM106.478 19.749H104.053L102.668 15.7412H96.752L95.3652 19.749H92.9395L98.3887 4.60645H101.028L106.478 19.749ZM119.597 8.24414C120.627 8.24422 121.467 8.56727 122.117 9.21289C122.773 9.85856 123.101 10.8317 123.101 12.1328V19.749H120.891V12.3398C120.891 11.571 120.681 11.0139 120.262 10.6689C119.843 10.324 119.342 10.1514 118.761 10.1514C118.041 10.1514 117.481 10.3738 117.082 10.8174C116.683 11.2559 116.483 11.8201 116.483 12.5098V19.749H114.28V12.1992C114.28 11.5833 114.088 11.0884 113.703 10.7139C113.319 10.3393 112.818 10.1514 112.202 10.1514C111.783 10.1514 111.397 10.2627 111.042 10.4844C110.692 10.7012 110.408 11.0042 110.191 11.3936C109.979 11.783 109.874 12.2344 109.874 12.7471V19.749H107.663V8.3916H109.785V10.2402H109.926C110.162 9.61439 110.549 9.12629 111.086 8.77637C111.623 8.42151 112.267 8.24418 113.016 8.24414C113.775 8.24414 114.411 8.42147 114.924 8.77637C115.441 9.13123 115.823 9.61932 116.069 10.2402H116.188C116.459 9.63399 116.89 9.15084 117.481 8.79102C118.073 8.42626 118.778 8.24414 119.597 8.24414ZM74.4648 14.1885C74.386 14.2673 74.2326 14.3411 74.0059 14.4102C73.7842 14.4742 73.5307 14.5308 73.2451 14.5801C72.9592 14.6244 72.6803 14.6666 72.4092 14.7061C72.1381 14.7406 71.9109 14.7703 71.7285 14.7949C71.3 14.8491 70.9084 14.9403 70.5537 15.0684C70.2038 15.1965 69.9229 15.3816 69.7109 15.623C69.5039 15.8596 69.4004 16.175 69.4004 16.5693C69.4004 17.1164 69.6018 17.5306 70.0059 17.8115C70.41 18.0876 70.9258 18.2256 71.5518 18.2256C72.1629 18.2256 72.6854 18.1048 73.1191 17.8633C73.5578 17.6218 73.8905 17.3063 74.1172 16.917C74.3489 16.5227 74.4648 16.1009 74.4648 15.6523V14.1885ZM49.3086 10.0928C48.6136 10.0928 48.0365 10.2768 47.5781 10.6465C47.1247 11.0162 46.7872 11.507 46.5654 12.1182C46.3486 12.7244 46.2403 13.3898 46.2402 14.1143C46.2402 14.8437 46.3486 15.5119 46.5654 16.1182C46.7872 16.7244 47.1247 17.2104 47.5781 17.5752C48.0365 17.9399 48.6136 18.1221 49.3086 18.1221C49.9987 18.1221 50.5709 17.94 51.0244 17.5752C51.4779 17.2104 51.8124 16.7244 52.0293 16.1182C52.2511 15.5119 52.3623 14.8438 52.3623 14.1143C52.3623 13.3898 52.2511 12.7244 52.0293 12.1182C51.8124 11.5071 51.4778 11.0161 51.0244 10.6465C50.5709 10.2768 49.9987 10.0928 49.3086 10.0928ZM164.814 10.0928C164.12 10.0928 163.543 10.2771 163.085 10.6465C162.631 11.0162 162.293 11.507 162.071 12.1182C161.854 12.7243 161.746 13.3898 161.746 14.1143C161.746 14.8437 161.854 15.5119 162.071 16.1182C162.293 16.7244 162.631 17.2104 163.085 17.5752C163.543 17.9397 164.12 18.122 164.814 18.1221C165.504 18.1221 166.077 17.9399 166.53 17.5752C166.984 17.2104 167.319 16.7244 167.536 16.1182C167.758 15.512 167.868 14.8437 167.868 14.1143C167.868 13.3898 167.758 12.7243 167.536 12.1182C167.319 11.507 166.984 11.0162 166.53 10.6465C166.077 10.2769 165.504 10.0928 164.814 10.0928ZM141.375 10.1221C140.71 10.1221 140.155 10.2946 139.711 10.6396C139.267 10.9847 138.933 11.4555 138.706 12.0518C138.484 12.6482 138.373 13.3211 138.373 14.0703C138.373 14.8293 138.486 15.512 138.713 16.1182C138.94 16.7244 139.275 17.2056 139.719 17.5605C140.167 17.9104 140.72 18.085 141.375 18.085C142.011 18.085 142.548 17.9171 142.986 17.582C143.43 17.2419 143.765 16.7713 143.992 16.1699C144.224 15.5686 144.34 14.8688 144.34 14.0703C144.34 13.2817 144.227 12.5915 144 12C143.773 11.4086 143.441 10.9474 143.002 10.6172C142.563 10.2869 142.021 10.1221 141.375 10.1221ZM97.417 13.8193H102.004L99.7715 7.35645H99.6533L97.417 13.8193ZM129.777 10.0703C129.156 10.0703 128.614 10.2228 128.15 10.5283C127.692 10.829 127.337 11.2239 127.086 11.7119C126.87 12.1355 126.748 12.5911 126.722 13.0791H132.624C132.624 12.4976 132.505 11.9826 132.269 11.5342C132.032 11.0807 131.699 10.7231 131.271 10.4619C130.847 10.2008 130.349 10.0704 129.777 10.0703ZM153.165 10.0703C152.544 10.0703 152.001 10.2227 151.538 10.5283C151.08 10.829 150.725 11.224 150.474 11.7119C150.258 12.1354 150.137 12.5912 150.11 13.0791H156.012C156.012 12.4977 155.894 11.9826 155.657 11.5342C155.421 11.0807 155.087 10.7232 154.658 10.4619C154.234 10.2008 153.737 10.0703 153.165 10.0703ZM64.5215 4C64.9058 4 65.2338 4.13051 65.5049 4.3916C65.7809 4.64786 65.9189 4.95859 65.9189 5.32324C65.9189 5.68307 65.7809 5.99364 65.5049 6.25488C65.2338 6.51119 64.906 6.63965 64.5215 6.63965C64.1371 6.63959 63.8072 6.51111 63.5312 6.25488C63.2601 5.99364 63.124 5.68307 63.124 5.32324C63.1241 4.95859 63.2602 4.64786 63.5312 4.3916C63.8072 4.13059 64.1372 4.00006 64.5215 4ZM90.6641 4C91.0485 4 91.3764 4.13047 91.6475 4.3916C91.9234 4.64786 92.0615 4.95859 92.0615 5.32324C92.0615 5.68305 91.9235 5.99365 91.6475 6.25488C91.3764 6.5112 91.0485 6.63965 90.6641 6.63965C90.2797 6.63962 89.9498 6.5111 89.6738 6.25488C89.4027 5.99364 89.2666 5.68307 89.2666 5.32324C89.2667 4.95859 89.4028 4.64786 89.6738 4.3916C89.9498 4.1306 90.2798 4.00003 90.6641 4Z" fill="#F2F2F3"/>
</svg>
