<svg width="170" height="24" viewBox="0 0 170 24" fill="none" xmlns="http://www.w3.org/2000/svg">
<path d="M22.5 3H24.5V18H22.5V3Z" fill="#ECECE9"/>
<path d="M7.5 3C5.51088 3 3.60322 3.79018 2.1967 5.1967C0.790177 6.60322 1.70387e-07 8.51088 2.02126e-08 10.5C-1.29962e-07 12.4891 0.790176 14.3968 2.1967 15.8033C3.60322 17.2098 5.51088 18 7.5 18L7.5 3Z" fill="#ECECE9"/>
<path d="M15 3C19.1421 3 22.5 6.35786 22.5 10.5C22.5 14.6421 19.1421 18 15 18C10.8579 18 7.5 14.6421 7.5 10.5C7.5 6.35786 10.8579 3 15 3Z" fill="#ECECE9"/>
<path fill-rule="evenodd" clip-rule="evenodd" d="M71.8311 6.24414C72.2845 6.24414 72.7657 6.29781 73.2734 6.40625C73.7859 6.50976 74.2636 6.70258 74.707 6.9834C75.1555 7.26432 75.5227 7.66611 75.8086 8.18848C76.0945 8.70604 76.2383 9.37893 76.2383 10.207V17.749H74.0791V16.1963H73.9902C73.8473 16.4821 73.6325 16.7631 73.3467 17.0391C73.0608 17.315 72.6935 17.5442 72.2451 17.7266C71.7967 17.9089 71.2596 18 70.6338 18C69.9142 18 69.2633 17.8667 68.6816 17.6006C68.1 17.3295 67.6389 16.9374 67.2988 16.4248C66.9638 15.9123 66.7959 15.2841 66.7959 14.54C66.7959 13.8993 66.9196 13.3711 67.166 12.957C67.4124 12.5432 67.7453 12.216 68.1641 11.9746C68.583 11.7331 69.0509 11.55 69.5684 11.4268C70.0859 11.3035 70.6141 11.2106 71.1514 11.1465C71.8315 11.0676 72.3838 11.0034 72.8076 10.9541C73.2313 10.8999 73.5393 10.8135 73.7314 10.6953C73.9237 10.577 74.0195 10.3843 74.0195 10.1182V10.0664C74.0195 9.42075 73.8374 8.9203 73.4727 8.56543C73.1128 8.21059 72.575 8.0332 71.8604 8.0332C71.1165 8.03327 70.5303 8.19836 70.1016 8.52832C69.6778 8.85354 69.3844 9.21613 69.2217 9.61523L67.1436 9.14258C67.3899 8.4527 67.7497 7.89554 68.2227 7.47168C68.7008 7.04284 69.251 6.73228 69.8721 6.54004C70.4931 6.34291 71.146 6.24416 71.8311 6.24414ZM74.0273 12.1885C73.9485 12.2673 73.7951 12.3411 73.5684 12.4102C73.3467 12.4742 73.0932 12.5308 72.8076 12.5801C72.5217 12.6244 72.2428 12.6666 71.9717 12.7061C71.7006 12.7406 71.4734 12.7703 71.291 12.7949C70.8625 12.8491 70.4709 12.9403 70.1162 13.0684C69.7663 13.1965 69.4854 13.3816 69.2734 13.623C69.0664 13.8596 68.9629 14.175 68.9629 14.5693C68.9629 15.1164 69.1643 15.5306 69.5684 15.8115C69.9725 16.0876 70.4883 16.2256 71.1143 16.2256C71.7254 16.2256 72.2479 16.1048 72.6816 15.8633C73.1203 15.6218 73.453 15.3063 73.6797 14.917C73.9114 14.5227 74.0273 14.1009 74.0273 13.6523V12.1885Z" fill="#ECECE9"/>
<path fill-rule="evenodd" clip-rule="evenodd" d="M48.8643 6.24414C49.9287 6.24422 50.8579 6.4877 51.6514 6.97559C52.445 7.46357 53.0613 8.14893 53.5 9.03125C53.9387 9.91356 54.1572 10.944 54.1572 12.1221C54.1572 13.2952 53.9387 14.3209 53.5 15.1982C53.0613 16.0755 52.4449 16.7582 51.6514 17.2461C50.8579 17.734 49.9287 17.9775 48.8643 17.9775C47.7996 17.9775 46.8698 17.7341 46.0762 17.2461C45.2826 16.7582 44.6662 16.0755 44.2275 15.1982C43.7889 14.3209 43.5703 13.2952 43.5703 12.1221C43.5703 10.944 43.7888 9.91356 44.2275 9.03125C44.6662 8.14893 45.2826 7.46357 46.0762 6.97559C46.8698 6.48762 47.7996 6.24414 48.8643 6.24414ZM48.8711 8.09277C48.1761 8.09279 47.599 8.27681 47.1406 8.64648C46.6872 9.01616 46.3497 9.50699 46.1279 10.1182C45.9111 10.7244 45.8028 11.3898 45.8027 12.1143C45.8027 12.8437 45.9111 13.5119 46.1279 14.1182C46.3497 14.7244 46.6872 15.2104 47.1406 15.5752C47.599 15.9399 48.1761 16.1221 48.8711 16.1221C49.5612 16.1221 50.1334 15.94 50.5869 15.5752C51.0404 15.2104 51.3749 14.7244 51.5918 14.1182C51.8136 13.5119 51.9248 12.8438 51.9248 12.1143C51.9248 11.3898 51.8136 10.7244 51.5918 10.1182C51.3749 9.50705 51.0403 9.01613 50.5869 8.64648C50.1334 8.2768 49.5612 8.09277 48.8711 8.09277Z" fill="#ECECE9"/>
<path fill-rule="evenodd" clip-rule="evenodd" d="M129.325 6.24414C129.966 6.24419 130.586 6.34975 131.188 6.56152C131.789 6.77348 132.329 7.10707 132.808 7.56055C133.286 8.01397 133.663 8.6028 133.938 9.32715C134.215 10.0468 134.353 10.922 134.353 11.9521V12.7354H126.282C126.299 13.4277 126.43 14.0218 126.678 14.5176C126.949 15.0498 127.326 15.4564 127.809 15.7373C128.292 16.0133 128.856 16.1513 129.502 16.1514C129.921 16.1514 130.303 16.0929 130.648 15.9746C130.993 15.8514 131.292 15.6683 131.543 15.4268C131.794 15.1853 131.986 14.887 132.119 14.5322L134.212 14.9092C134.044 15.5253 133.743 16.065 133.31 16.5283C132.881 16.9867 132.341 17.3443 131.69 17.6006C131.045 17.8519 130.308 17.9775 129.48 17.9775C128.362 17.9775 127.397 17.7389 126.589 17.2607C125.785 16.7777 125.164 16.0999 124.726 15.2275C124.292 14.3502 124.075 13.3224 124.075 12.1445C124.075 10.9813 124.292 9.95559 124.726 9.06836C125.164 8.18118 125.776 7.48905 126.56 6.99121C127.348 6.49337 128.27 6.24414 129.325 6.24414ZM129.34 8.07031C128.719 8.07031 128.176 8.22277 127.713 8.52832C127.254 8.829 126.9 9.22393 126.648 9.71191C126.432 10.1355 126.311 10.5911 126.284 11.0791H132.187C132.186 10.4976 132.068 9.98263 131.831 9.53418C131.594 9.08074 131.262 8.72314 130.833 8.46191C130.409 8.20077 129.911 8.07036 129.34 8.07031Z" fill="#ECECE9"/>
<path fill-rule="evenodd" clip-rule="evenodd" d="M152.713 6.24414C153.354 6.24415 153.975 6.34958 154.576 6.56152C155.178 6.77348 155.717 7.10707 156.195 7.56055C156.673 8.01397 157.05 8.60276 157.326 9.32715C157.602 10.0468 157.74 10.922 157.74 11.9521V12.7354H149.67C149.687 13.4277 149.818 14.0219 150.065 14.5176C150.337 15.0499 150.714 15.4563 151.197 15.7373C151.68 16.0133 152.245 16.1514 152.891 16.1514C153.309 16.1513 153.691 16.0928 154.036 15.9746C154.381 15.8514 154.679 15.6683 154.931 15.4268C155.182 15.1852 155.375 14.8871 155.508 14.5322L157.6 14.9092C157.432 15.5252 157.132 16.065 156.698 16.5283C156.269 16.9867 155.73 17.3443 155.079 17.6006C154.433 17.852 153.696 17.9775 152.868 17.9775C151.749 17.9775 150.786 17.7387 149.978 17.2607C149.174 16.7777 148.553 16.0999 148.114 15.2275C147.681 14.3502 147.463 13.3224 147.463 12.1445C147.463 10.9813 147.68 9.95561 148.114 9.06836C148.553 8.18135 149.164 7.48901 149.947 6.99121C150.736 6.49337 151.658 6.24414 152.713 6.24414ZM152.728 8.07031C152.106 8.07032 151.564 8.22273 151.101 8.52832C150.642 8.82899 150.287 9.22398 150.036 9.71191C149.82 10.1354 149.699 10.5912 149.673 11.0791H155.574C155.574 10.4977 155.456 9.98259 155.22 9.53418C154.983 9.0807 154.65 8.72316 154.221 8.46191C153.797 8.20083 153.299 8.07031 152.728 8.07031Z" fill="#ECECE9"/>
<path fill-rule="evenodd" clip-rule="evenodd" d="M164.37 6.24414C165.435 6.24418 166.364 6.48773 167.157 6.97559C167.951 7.46355 168.567 8.14898 169.006 9.03125C169.445 9.91357 169.664 10.944 169.664 12.1221C169.664 13.2952 169.445 14.3209 169.006 15.1982C168.567 16.0755 167.951 16.7582 167.157 17.2461C166.364 17.734 165.435 17.9775 164.37 17.9775C163.305 17.9775 162.376 17.7341 161.582 17.2461C160.789 16.7582 160.173 16.0753 159.734 15.1982C159.296 14.3209 159.076 13.2952 159.076 12.1221C159.076 10.944 159.296 9.91357 159.734 9.03125C160.173 8.14912 160.789 7.46351 161.582 6.97559C162.376 6.4876 163.305 6.24414 164.37 6.24414ZM164.377 8.09277C163.682 8.09283 163.106 8.27708 162.647 8.64648C162.194 9.01617 161.856 9.50695 161.634 10.1182C161.417 10.7243 161.309 11.3898 161.309 12.1143C161.309 12.8437 161.417 13.5119 161.634 14.1182C161.856 14.7244 162.194 15.2104 162.647 15.5752C163.106 15.9397 163.682 16.122 164.377 16.1221C165.067 16.1221 165.639 15.9399 166.093 15.5752C166.546 15.2104 166.882 14.7244 167.099 14.1182C167.32 13.512 167.431 12.8437 167.431 12.1143C167.431 11.3898 167.32 10.7243 167.099 10.1182C166.882 9.50695 166.546 9.01617 166.093 8.64648C165.639 8.27687 165.067 8.09277 164.377 8.09277Z" fill="#ECECE9"/>
<path fill-rule="evenodd" clip-rule="evenodd" d="M146.076 17.749H143.917V15.9814H143.732C143.599 16.223 143.407 16.499 143.155 16.8096C142.909 17.1201 142.568 17.3914 142.135 17.623C141.701 17.8546 141.139 17.9707 140.449 17.9707C139.533 17.9707 138.715 17.7358 137.995 17.2676C137.28 16.7944 136.718 16.1223 136.309 15.25C135.904 14.3727 135.703 13.32 135.703 12.0928C135.703 10.8654 135.907 9.81484 136.316 8.94238C136.73 8.07023 137.297 7.40273 138.017 6.93945C138.736 6.47618 139.552 6.24421 140.464 6.24414C141.169 6.24414 141.736 6.36203 142.165 6.59863C142.599 6.83023 142.933 7.1017 143.17 7.41211C143.411 7.72251 143.599 7.99589 143.732 8.23242H143.865V2.60645H146.076V17.749ZM140.938 8.12207C140.272 8.12207 139.717 8.29461 139.273 8.63965C138.83 8.98465 138.495 9.45551 138.269 10.0518C138.047 10.6482 137.936 11.3211 137.936 12.0703C137.936 12.8293 138.049 13.512 138.275 14.1182C138.502 14.7244 138.838 15.2056 139.281 15.5605C139.73 15.9104 140.282 16.085 140.938 16.085C141.573 16.085 142.11 15.9171 142.549 15.582C142.992 15.2419 143.328 14.7713 143.555 14.1699C143.786 13.5686 143.902 12.8688 143.902 12.0703C143.902 11.2817 143.789 10.5915 143.562 10C143.336 9.40857 143.003 8.94743 142.564 8.61719C142.126 8.28694 141.583 8.12208 140.938 8.12207Z" fill="#ECECE9"/>
<path d="M36.3096 2.39941C37.113 2.39941 37.8626 2.5154 38.5576 2.74707C39.2573 2.97376 39.8856 3.30855 40.4424 3.75195C40.9994 4.19065 41.4604 4.7284 41.8252 5.36426C42.1899 5.99511 42.4363 6.71708 42.5645 7.53027H40.2578C40.1691 7.03758 40.0041 6.60398 39.7627 6.22949C39.5212 5.85488 39.225 5.53664 38.875 5.27539C38.5251 5.01421 38.1329 4.81666 37.6992 4.68359C37.2706 4.55063 36.8148 4.4844 36.332 4.48438C35.4596 4.48438 34.6783 4.70393 33.9883 5.14258C33.3031 5.58127 32.7606 6.22445 32.3613 7.07227C31.967 7.92005 31.7695 8.95538 31.7695 10.1777C31.7696 11.4099 31.967 12.4501 32.3613 13.2979C32.7605 14.1454 33.3052 14.786 33.9951 15.2197C34.6851 15.6535 35.4617 15.8711 36.3242 15.8711C36.8022 15.8711 37.2558 15.8068 37.6846 15.6787C38.1182 15.5457 38.5105 15.3509 38.8604 15.0947C39.2103 14.8384 39.5065 14.525 39.748 14.1553C39.9944 13.7808 40.1642 13.352 40.2578 12.8691L42.5645 12.876C42.4412 13.6203 42.2025 14.3057 41.8477 14.9316C41.4977 15.5527 41.0462 16.0895 40.4941 16.543C39.947 16.9915 39.3211 17.3395 38.6162 17.5859C37.9114 17.8323 37.1425 17.9561 36.3096 17.9561C34.9984 17.956 33.8299 17.6455 32.8047 17.0244C31.7794 16.3984 30.9714 15.5031 30.3799 14.3398C29.7934 13.1767 29.5 11.7894 29.5 10.1777C29.5 8.56098 29.7962 7.173 30.3877 6.01465C30.9792 4.85151 31.7873 3.95891 32.8125 3.33789C33.8377 2.712 35.0035 2.39942 36.3096 2.39941Z" fill="#ECECE9"/>
<path d="M61.2109 6.23633C61.4032 6.24619 61.5537 6.25865 61.6621 6.27344V8.3877C61.5734 8.36305 61.4152 8.33622 61.1885 8.30664C60.9619 8.27218 60.7353 8.2549 60.5088 8.25488C59.9864 8.25488 59.5204 8.36613 59.1113 8.58789C58.7073 8.80471 58.387 9.10783 58.1504 9.49707C57.9138 9.88154 57.7949 10.3206 57.7949 10.8135V17.749H55.584V6.3916H57.7207V8.19629H57.8398C58.0469 7.58508 58.4111 7.10388 58.9336 6.75391C59.4609 6.39909 60.0574 6.22173 60.7227 6.22168C60.8607 6.22168 61.0236 6.22647 61.2109 6.23633Z" fill="#ECECE9"/>
<path d="M65.1787 17.749H62.9678V6.3916H65.1787V17.749Z" fill="#ECECE9"/>
<path d="M83.5361 6.24414C84.31 6.24414 84.9877 6.40711 85.5693 6.73242C86.1509 7.05278 86.6025 7.53026 86.9229 8.16602C87.2432 8.80188 87.4033 9.58885 87.4033 10.5254V17.749H85.1924V10.791C85.1924 9.9679 84.9776 9.32465 84.5488 8.86133C84.12 8.39324 83.5313 8.15919 82.7822 8.15918C82.2696 8.15918 81.8133 8.2694 81.4141 8.49121C81.0197 8.71302 80.7073 9.03895 80.4756 9.46777C80.2488 9.89168 80.1348 10.4045 80.1348 11.0059V17.749H77.9248V6.3916H80.0469V8.24023H80.1865C80.4477 7.63893 80.8571 7.15576 81.4141 6.79102C81.9759 6.42629 82.6835 6.24417 83.5361 6.24414Z" fill="#ECECE9"/>
<path d="M91.3213 17.749H89.1104V6.3916H91.3213V17.749Z" fill="#ECECE9"/>
<path fill-rule="evenodd" clip-rule="evenodd" d="M106.04 17.749H103.615L102.23 13.7412H96.3145L94.9277 17.749H92.502L97.9512 2.60645H100.591L106.04 17.749ZM96.9795 11.8193H101.566L99.334 5.35645H99.2158L96.9795 11.8193Z" fill="#ECECE9"/>
<path d="M119.159 6.24414C120.189 6.24422 121.029 6.56727 121.68 7.21289C122.335 7.85856 122.663 8.83166 122.663 10.1328V17.749H120.453V10.3398C120.453 9.57104 120.243 9.01395 119.824 8.66895C119.405 8.32396 118.905 8.15137 118.323 8.15137C117.604 8.15138 117.044 8.37377 116.645 8.81738C116.246 9.25593 116.046 9.82008 116.046 10.5098V17.749H113.843V10.1992C113.843 9.58327 113.65 9.0884 113.266 8.71387C112.881 8.33925 112.381 8.15137 111.765 8.15137C111.346 8.15144 110.959 8.26269 110.604 8.48438C110.255 8.70124 109.971 9.0042 109.754 9.39355C109.542 9.78296 109.437 10.2344 109.437 10.7471V17.749H107.226V6.3916H109.348V8.24023H109.488C109.725 7.61439 110.111 7.12629 110.648 6.77637C111.186 6.42151 111.829 6.24418 112.578 6.24414C113.337 6.24414 113.974 6.42147 114.486 6.77637C115.004 7.13123 115.385 7.61932 115.632 8.24023H115.75C116.021 7.63399 116.453 7.15084 117.044 6.79102C117.635 6.42626 118.341 6.24414 119.159 6.24414Z" fill="#ECECE9"/>
<path d="M64.084 2C64.4683 2 64.7963 2.13051 65.0674 2.3916C65.3434 2.64786 65.4814 2.95859 65.4814 3.32324C65.4814 3.68307 65.3434 3.99364 65.0674 4.25488C64.7963 4.51119 64.4685 4.63965 64.084 4.63965C63.6996 4.63959 63.3697 4.51111 63.0938 4.25488C62.8226 3.99364 62.6865 3.68307 62.6865 3.32324C62.6866 2.95859 62.8227 2.64786 63.0938 2.3916C63.3697 2.13059 63.6997 2.00006 64.084 2Z" fill="#ECECE9"/>
<path d="M90.2266 2C90.611 2 90.9389 2.13047 91.21 2.3916C91.4859 2.64786 91.624 2.95859 91.624 3.32324C91.624 3.68305 91.486 3.99365 91.21 4.25488C90.9389 4.5112 90.611 4.63965 90.2266 4.63965C89.8422 4.63962 89.5123 4.5111 89.2363 4.25488C88.9652 3.99364 88.8291 3.68307 88.8291 3.32324C88.8292 2.95859 88.9653 2.64786 89.2363 2.3916C89.5123 2.1306 89.8423 2.00003 90.2266 2Z" fill="#ECECE9"/>
</svg>
