<svg width="170" height="16" viewBox="0 0 170 16" fill="none" xmlns="http://www.w3.org/2000/svg">
<path d="M22.5 1H24.5V16H22.5V1Z" fill="#ECECE9"/>
<path d="M7.5 1C5.51088 1 3.60322 1.79018 2.1967 3.1967C0.790177 4.60322 1.70387e-07 6.51088 2.02126e-08 8.5C-1.29962e-07 10.4891 0.790176 12.3968 2.1967 13.8033C3.60322 15.2098 5.51088 16 7.5 16L7.5 1Z" fill="#ECECE9"/>
<path d="M15 1C19.1421 1 22.5 4.35786 22.5 8.5C22.5 12.6421 19.1421 16 15 16C10.8579 16 7.5 12.6421 7.5 8.5C7.5 4.35786 10.8579 1 15 1Z" fill="#ECECE9"/>
<path fill-rule="evenodd" clip-rule="evenodd" d="M71.8311 4.24414C72.2845 4.24414 72.7657 4.29781 73.2734 4.40625C73.7859 4.50976 74.2636 4.70258 74.707 4.9834C75.1555 5.26432 75.5227 5.66611 75.8086 6.18848C76.0945 6.70604 76.2383 7.37894 76.2383 8.20703V15.749H74.0791V14.1963H73.9902C73.8473 14.4821 73.6325 14.7631 73.3467 15.0391C73.0608 15.315 72.6935 15.5442 72.2451 15.7266C71.7967 15.9089 71.2596 16 70.6338 16C69.9142 16 69.2633 15.8667 68.6816 15.6006C68.1 15.3295 67.6389 14.9374 67.2988 14.4248C66.9638 13.9123 66.7959 13.2841 66.7959 12.54C66.7959 11.8993 66.9196 11.3711 67.166 10.957C67.4124 10.5432 67.7453 10.216 68.1641 9.97461C68.583 9.73313 69.0509 9.54999 69.5684 9.42676C70.0859 9.30353 70.6141 9.21056 71.1514 9.14648C71.8315 9.06763 72.3838 9.00339 72.8076 8.9541C73.2312 8.89989 73.5393 8.81354 73.7314 8.69531C73.9237 8.57701 74.0195 8.38434 74.0195 8.11816V8.06641C74.0195 7.42075 73.8374 6.9203 73.4727 6.56543C73.1128 6.21059 72.575 6.0332 71.8604 6.0332C71.1165 6.03327 70.5303 6.19836 70.1016 6.52832C69.6778 6.85354 69.3844 7.21613 69.2217 7.61523L67.1436 7.14258C67.3899 6.4527 67.7497 5.89554 68.2227 5.47168C68.7008 5.04284 69.251 4.73228 69.8721 4.54004C70.4931 4.34291 71.146 4.24416 71.8311 4.24414ZM74.0273 10.1885C73.9485 10.2673 73.7951 10.3411 73.5684 10.4102C73.3467 10.4742 73.0932 10.5308 72.8076 10.5801C72.5217 10.6244 72.2428 10.6666 71.9717 10.7061C71.7006 10.7406 71.4734 10.7703 71.291 10.7949C70.8625 10.8491 70.4709 10.9403 70.1162 11.0684C69.7663 11.1965 69.4854 11.3816 69.2734 11.623C69.0664 11.8596 68.9629 12.175 68.9629 12.5693C68.9629 13.1164 69.1643 13.5306 69.5684 13.8115C69.9725 14.0876 70.4883 14.2256 71.1143 14.2256C71.7254 14.2256 72.2479 14.1048 72.6816 13.8633C73.1203 13.6218 73.453 13.3063 73.6797 12.917C73.9114 12.5227 74.0273 12.1009 74.0273 11.6523V10.1885Z" fill="#ECECE9"/>
<path fill-rule="evenodd" clip-rule="evenodd" d="M48.8643 4.24414C49.9287 4.24421 50.8579 4.4877 51.6514 4.97559C52.445 5.46357 53.0613 6.14893 53.5 7.03125C53.9387 7.91356 54.1572 8.94401 54.1572 10.1221C54.1572 11.2952 53.9387 12.3209 53.5 13.1982C53.0613 14.0755 52.4449 14.7581 51.6514 15.2461C50.8579 15.734 49.9287 15.9775 48.8643 15.9775C47.7996 15.9775 46.8698 15.7341 46.0762 15.2461C45.2827 14.7581 44.6662 14.0755 44.2275 13.1982C43.7889 12.3209 43.5703 11.2952 43.5703 10.1221C43.5703 8.94401 43.7888 7.91356 44.2275 7.03125C44.6662 6.14893 45.2826 5.46357 46.0762 4.97559C46.8698 4.48762 47.7996 4.24414 48.8643 4.24414ZM48.8711 6.09277C48.1761 6.09279 47.599 6.27681 47.1406 6.64648C46.6872 7.01616 46.3497 7.50699 46.1279 8.11816C45.9111 8.72435 45.8028 9.38981 45.8027 10.1143C45.8027 10.8437 45.9111 11.5119 46.1279 12.1182C46.3497 12.7244 46.6872 13.2104 47.1406 13.5752C47.599 13.9399 48.1761 14.1221 48.8711 14.1221C49.5612 14.1221 50.1334 13.94 50.5869 13.5752C51.0404 13.2104 51.3749 12.7244 51.5918 12.1182C51.8136 11.5119 51.9248 10.8438 51.9248 10.1143C51.9248 9.38981 51.8136 8.72435 51.5918 8.11816C51.3749 7.50705 51.0403 7.01613 50.5869 6.64648C50.1334 6.2768 49.5612 6.09277 48.8711 6.09277Z" fill="#ECECE9"/>
<path fill-rule="evenodd" clip-rule="evenodd" d="M129.325 4.24414C129.966 4.24419 130.586 4.34975 131.188 4.56152C131.789 4.77348 132.329 5.10707 132.808 5.56055C133.286 6.01397 133.663 6.6028 133.938 7.32715C134.215 8.0468 134.353 8.92196 134.353 9.95215V10.7354H126.282C126.299 11.4277 126.43 12.0218 126.678 12.5176C126.949 13.0498 127.326 13.4564 127.809 13.7373C128.292 14.0133 128.856 14.1513 129.502 14.1514C129.921 14.1514 130.303 14.0929 130.648 13.9746C130.993 13.8514 131.292 13.6683 131.543 13.4268C131.794 13.1853 131.986 12.887 132.119 12.5322L134.212 12.9092C134.044 13.5253 133.743 14.065 133.31 14.5283C132.881 14.9867 132.341 15.3443 131.69 15.6006C131.045 15.8519 130.308 15.9775 129.48 15.9775C128.362 15.9775 127.397 15.7389 126.589 15.2607C125.785 14.7777 125.164 14.0999 124.726 13.2275C124.292 12.3502 124.075 11.3224 124.075 10.1445C124.075 8.98129 124.292 7.95559 124.726 7.06836C125.164 6.18118 125.776 5.48905 126.56 4.99121C127.348 4.49337 128.27 4.24414 129.325 4.24414ZM129.34 6.07031C128.719 6.07031 128.176 6.22277 127.713 6.52832C127.254 6.829 126.9 7.22393 126.648 7.71191C126.432 8.13548 126.311 8.59112 126.284 9.0791H132.187C132.186 8.49762 132.068 7.98263 131.831 7.53418C131.594 7.08074 131.262 6.72314 130.833 6.46191C130.409 6.20077 129.911 6.07036 129.34 6.07031Z" fill="#ECECE9"/>
<path fill-rule="evenodd" clip-rule="evenodd" d="M152.713 4.24414C153.354 4.24415 153.975 4.34958 154.576 4.56152C155.178 4.77348 155.717 5.10707 156.195 5.56055C156.673 6.01397 157.05 6.60276 157.326 7.32715C157.602 8.0468 157.74 8.92196 157.74 9.95215V10.7354H149.67C149.687 11.4277 149.818 12.0219 150.065 12.5176C150.337 13.0499 150.714 13.4563 151.197 13.7373C151.68 14.0133 152.245 14.1514 152.891 14.1514C153.309 14.1513 153.691 14.0928 154.036 13.9746C154.381 13.8514 154.679 13.6683 154.931 13.4268C155.182 13.1852 155.375 12.8871 155.508 12.5322L157.6 12.9092C157.432 13.5252 157.132 14.065 156.698 14.5283C156.269 14.9867 155.73 15.3443 155.079 15.6006C154.433 15.852 153.696 15.9775 152.868 15.9775C151.749 15.9775 150.786 15.7387 149.978 15.2607C149.174 14.7777 148.553 14.0999 148.114 13.2275C147.681 12.3502 147.463 11.3224 147.463 10.1445C147.463 8.98125 147.68 7.95561 148.114 7.06836C148.553 6.18135 149.164 5.48901 149.947 4.99121C150.736 4.49337 151.658 4.24414 152.713 4.24414ZM152.728 6.07031C152.106 6.07033 151.564 6.22273 151.101 6.52832C150.642 6.82899 150.287 7.22398 150.036 7.71191C149.82 8.13543 149.699 8.59118 149.673 9.0791H155.574C155.574 8.49769 155.456 7.98259 155.22 7.53418C154.983 7.0807 154.65 6.72316 154.221 6.46191C153.797 6.20083 153.299 6.07031 152.728 6.07031Z" fill="#ECECE9"/>
<path fill-rule="evenodd" clip-rule="evenodd" d="M164.37 4.24414C165.435 4.24418 166.364 4.48773 167.157 4.97559C167.951 5.46355 168.567 6.14898 169.006 7.03125C169.445 7.91357 169.664 8.94401 169.664 10.1221C169.664 11.2952 169.445 12.3209 169.006 13.1982C168.567 14.0755 167.951 14.7582 167.157 15.2461C166.364 15.734 165.435 15.9775 164.37 15.9775C163.305 15.9775 162.376 15.7341 161.582 15.2461C160.789 14.7582 160.173 14.0753 159.734 13.1982C159.296 12.3209 159.076 11.2952 159.076 10.1221C159.076 8.94401 159.296 7.91357 159.734 7.03125C160.173 6.14911 160.789 5.46351 161.582 4.97559C162.376 4.4876 163.305 4.24414 164.37 4.24414ZM164.377 6.09277C163.682 6.09283 163.106 6.27708 162.647 6.64648C162.194 7.01617 161.856 7.50695 161.634 8.11816C161.417 8.72435 161.309 9.38981 161.309 10.1143C161.309 10.8437 161.417 11.5119 161.634 12.1182C161.856 12.7244 162.194 13.2104 162.647 13.5752C163.106 13.9397 163.682 14.122 164.377 14.1221C165.067 14.1221 165.639 13.9399 166.093 13.5752C166.546 13.2104 166.882 12.7244 167.099 12.1182C167.32 11.512 167.431 10.8437 167.431 10.1143C167.431 9.38982 167.32 8.72434 167.099 8.11816C166.882 7.50695 166.546 7.01617 166.093 6.64648C165.639 6.27687 165.067 6.09277 164.377 6.09277Z" fill="#ECECE9"/>
<path fill-rule="evenodd" clip-rule="evenodd" d="M146.076 15.749H143.917V13.9814H143.732C143.599 14.223 143.407 14.499 143.155 14.8096C142.909 15.1201 142.568 15.3914 142.135 15.623C141.701 15.8546 141.139 15.9707 140.449 15.9707C139.533 15.9707 138.715 15.7358 137.995 15.2676C137.28 14.7944 136.718 14.1224 136.309 13.25C135.904 12.3727 135.703 11.32 135.703 10.0928C135.703 8.86542 135.907 7.81484 136.316 6.94238C136.73 6.07023 137.297 5.40273 138.017 4.93945C138.736 4.47618 139.552 4.24421 140.464 4.24414C141.169 4.24414 141.736 4.36203 142.165 4.59863C142.599 4.83023 142.933 5.1017 143.17 5.41211C143.411 5.72251 143.599 5.99589 143.732 6.23242H143.865V0.606445H146.076V15.749ZM140.938 6.12207C140.272 6.12207 139.717 6.29461 139.273 6.63965C138.83 6.98465 138.495 7.45551 138.269 8.05176C138.047 8.64818 137.936 9.32108 137.936 10.0703C137.936 10.8293 138.049 11.512 138.275 12.1182C138.502 12.7244 138.838 13.2056 139.281 13.5605C139.73 13.9104 140.282 14.085 140.938 14.085C141.573 14.085 142.11 13.9171 142.549 13.582C142.992 13.2419 143.328 12.7713 143.555 12.1699C143.786 11.5686 143.902 10.8688 143.902 10.0703C143.902 9.28169 143.789 8.59148 143.562 8C143.336 7.40857 143.003 6.94743 142.564 6.61719C142.126 6.28694 141.583 6.12208 140.938 6.12207Z" fill="#ECECE9"/>
<path d="M36.3096 0.399414C37.113 0.399414 37.8626 0.5154 38.5576 0.74707C39.2573 0.973759 39.8856 1.30855 40.4424 1.75195C40.9994 2.19065 41.4604 2.7284 41.8252 3.36426C42.1899 3.99511 42.4363 4.71708 42.5645 5.53027H40.2578C40.1691 5.03758 40.0041 4.60398 39.7627 4.22949C39.5212 3.85488 39.225 3.53664 38.875 3.27539C38.5251 3.01421 38.1329 2.81666 37.6992 2.68359C37.2706 2.55063 36.8148 2.4844 36.332 2.48438C35.4596 2.48438 34.6783 2.70393 33.9883 3.14258C33.3031 3.58127 32.7606 4.22445 32.3613 5.07227C31.967 5.92005 31.7695 6.95538 31.7695 8.17773C31.7696 9.4099 31.967 10.4501 32.3613 11.2979C32.7605 12.1454 33.3052 12.786 33.9951 13.2197C34.6851 13.6535 35.4617 13.8711 36.3242 13.8711C36.8022 13.8711 37.2558 13.8068 37.6846 13.6787C38.1182 13.5457 38.5105 13.3509 38.8604 13.0947C39.2103 12.8384 39.5065 12.525 39.748 12.1553C39.9944 11.7808 40.1642 11.352 40.2578 10.8691L42.5645 10.876C42.4412 11.6203 42.2025 12.3057 41.8477 12.9316C41.4977 13.5527 41.0462 14.0895 40.4941 14.543C39.947 14.9915 39.3211 15.3395 38.6162 15.5859C37.9114 15.8323 37.1425 15.9561 36.3096 15.9561C34.9984 15.956 33.8299 15.6455 32.8047 15.0244C31.7794 14.3984 30.9714 13.5031 30.3799 12.3398C29.7934 11.1767 29.5 9.78935 29.5 8.17773C29.5 6.56098 29.7962 5.173 30.3877 4.01465C30.9792 2.85151 31.7873 1.95891 32.8125 1.33789C33.8377 0.711997 35.0035 0.399421 36.3096 0.399414Z" fill="#ECECE9"/>
<path d="M61.2109 4.23633C61.4032 4.24619 61.5537 4.25865 61.6621 4.27344V6.3877C61.5734 6.36305 61.4152 6.33622 61.1885 6.30664C60.9619 6.27218 60.7353 6.2549 60.5088 6.25488C59.9864 6.25488 59.5204 6.36613 59.1113 6.58789C58.7073 6.80471 58.387 7.10783 58.1504 7.49707C57.9138 7.88154 57.7949 8.32056 57.7949 8.81348V15.749H55.584V4.3916H57.7207V6.19629H57.8398C58.0469 5.58508 58.4111 5.10388 58.9336 4.75391C59.4609 4.39909 60.0574 4.22173 60.7227 4.22168C60.8607 4.22168 61.0236 4.22647 61.2109 4.23633Z" fill="#ECECE9"/>
<path d="M65.1787 15.749H62.9678V4.3916H65.1787V15.749Z" fill="#ECECE9"/>
<path d="M83.5361 4.24414C84.31 4.24414 84.9877 4.40711 85.5693 4.73242C86.1509 5.05278 86.6025 5.53026 86.9229 6.16602C87.2432 6.80188 87.4033 7.58885 87.4033 8.52539V15.749H85.1924V8.79102C85.1924 7.9679 84.9776 7.32465 84.5488 6.86133C84.12 6.39324 83.5313 6.15919 82.7822 6.15918C82.2696 6.15918 81.8133 6.2694 81.4141 6.49121C81.0197 6.71302 80.7073 7.03895 80.4756 7.46777C80.2488 7.89168 80.1348 8.4045 80.1348 9.00586V15.749H77.9248V4.3916H80.0469V6.24023H80.1865C80.4477 5.63893 80.8571 5.15576 81.4141 4.79102C81.9759 4.42629 82.6835 4.24417 83.5361 4.24414Z" fill="#ECECE9"/>
<path d="M91.3213 15.749H89.1104V4.3916H91.3213V15.749Z" fill="#ECECE9"/>
<path fill-rule="evenodd" clip-rule="evenodd" d="M106.04 15.749H103.615L102.23 11.7412H96.3145L94.9277 15.749H92.502L97.9512 0.606445H100.591L106.04 15.749ZM96.9795 9.81934H101.566L99.334 3.35645H99.2158L96.9795 9.81934Z" fill="#ECECE9"/>
<path d="M119.159 4.24414C120.189 4.24422 121.029 4.56727 121.68 5.21289C122.335 5.85856 122.663 6.83166 122.663 8.13281V15.749H120.453V8.33984C120.453 7.57104 120.243 7.01395 119.824 6.66895C119.405 6.32396 118.905 6.15137 118.323 6.15137C117.604 6.15138 117.044 6.37377 116.645 6.81738C116.246 7.25593 116.046 7.82008 116.046 8.50977V15.749H113.843V8.19922C113.843 7.58327 113.65 7.0884 113.266 6.71387C112.881 6.33925 112.381 6.15137 111.765 6.15137C111.346 6.15144 110.959 6.26269 110.604 6.48438C110.255 6.70124 109.971 7.0042 109.754 7.39355C109.542 7.78296 109.437 8.23444 109.437 8.74707V15.749H107.226V4.3916H109.348V6.24023H109.488C109.725 5.61439 110.111 5.12629 110.648 4.77637C111.186 4.42151 111.829 4.24418 112.578 4.24414C113.337 4.24414 113.974 4.42147 114.486 4.77637C115.004 5.13123 115.385 5.61932 115.632 6.24023H115.75C116.021 5.63399 116.453 5.15084 117.044 4.79102C117.635 4.42626 118.341 4.24414 119.159 4.24414Z" fill="#ECECE9"/>
<path d="M64.084 0C64.4683 0 64.7963 0.130512 65.0674 0.391602C65.3434 0.647863 65.4814 0.958587 65.4814 1.32324C65.4814 1.68307 65.3434 1.99364 65.0674 2.25488C64.7963 2.51119 64.4685 2.63965 64.084 2.63965C63.6996 2.63959 63.3697 2.51111 63.0938 2.25488C62.8226 1.99364 62.6865 1.68307 62.6865 1.32324C62.6866 0.958586 62.8227 0.647863 63.0938 0.391602C63.3697 0.130589 63.6997 5.52681e-05 64.084 0Z" fill="#ECECE9"/>
<path d="M90.2266 0C90.611 0 90.9389 0.130471 91.21 0.391602C91.4859 0.647863 91.624 0.958586 91.624 1.32324C91.624 1.68305 91.486 1.99365 91.21 2.25488C90.9389 2.5112 90.611 2.63965 90.2266 2.63965C89.8422 2.63962 89.5123 2.5111 89.2363 2.25488C88.9652 1.99364 88.8291 1.68307 88.8291 1.32324C88.8292 0.958586 88.9653 0.647863 89.2363 0.391602C89.5123 0.130604 89.8423 2.76343e-05 90.2266 0Z" fill="#ECECE9"/>
</svg>
