<svg width="502" height="266" viewBox="0 0 502 266" fill="none" xmlns="http://www.w3.org/2000/svg">
<path d="M73.3977 64H63.1477L86.1789 -1.90735e-06H97.3352L120.366 64H110.116L92.0227 11.625H91.5227L73.3977 64ZM75.1164 38.9375H108.366V47.0625H75.1164V38.9375ZM143.348 82V16H152.473V23.7812H153.254C153.796 22.7812 154.577 21.625 155.598 20.3125C156.618 19 158.035 17.8542 159.848 16.875C161.66 15.875 164.056 15.375 167.035 15.375C170.91 15.375 174.368 16.3542 177.41 18.3125C180.452 20.2708 182.837 23.0937 184.566 26.7812C186.316 30.4687 187.191 34.9062 187.191 40.0937C187.191 45.2812 186.327 49.7292 184.598 53.4375C182.868 57.125 180.493 59.9687 177.473 61.9687C174.452 63.9479 171.004 64.9375 167.129 64.9375C164.212 64.9375 161.827 64.4479 159.973 63.4687C158.139 62.4896 156.702 61.3437 155.66 60.0312C154.618 58.7187 153.816 57.5521 153.254 56.5312H152.691V82H143.348ZM152.504 40C152.504 43.375 152.993 46.3333 153.973 48.875C154.952 51.4167 156.368 53.4062 158.223 54.8437C160.077 56.2604 162.348 56.9687 165.035 56.9687C167.827 56.9687 170.16 56.2292 172.035 54.75C173.91 53.25 175.327 51.2187 176.285 48.6562C177.264 46.0937 177.754 43.2083 177.754 40C177.754 36.8333 177.275 33.9896 176.316 31.4687C175.379 28.9479 173.962 26.9583 172.066 25.5C170.191 24.0417 167.848 23.3125 165.035 23.3125C162.327 23.3125 160.035 24.0104 158.16 25.4062C156.306 26.8021 154.9 28.75 153.941 31.25C152.983 33.75 152.504 36.6667 152.504 40ZM193.26 64V16H202.291V23.625H202.791C203.666 21.0417 205.208 19.0104 207.416 17.5312C209.646 16.0312 212.166 15.2812 214.979 15.2812C215.562 15.2812 216.25 15.3021 217.041 15.3437C217.854 15.3854 218.489 15.4375 218.948 15.5V24.4375C218.573 24.3333 217.906 24.2187 216.948 24.0937C215.989 23.9479 215.031 23.875 214.073 23.875C211.864 23.875 209.896 24.3437 208.166 25.2812C206.458 26.1979 205.104 27.4792 204.104 29.125C203.104 30.75 202.604 32.6042 202.604 34.6875V64H193.26ZM241.134 64.9688C236.634 64.9688 232.707 63.9375 229.352 61.875C225.998 59.8125 223.394 56.9271 221.54 53.2187C219.686 49.5104 218.759 45.1771 218.759 40.2187C218.759 35.2396 219.686 30.8854 221.54 27.1562C223.394 23.4271 225.998 20.5312 229.352 18.4688C232.707 16.4063 236.634 15.375 241.134 15.375C245.634 15.375 249.561 16.4063 252.915 18.4688C256.269 20.5312 258.873 23.4271 260.727 27.1562C262.582 30.8854 263.509 35.2396 263.509 40.2187C263.509 45.1771 262.582 49.5104 260.727 53.2187C258.873 56.9271 256.269 59.8125 252.915 61.875C249.561 63.9375 245.634 64.9688 241.134 64.9688ZM241.165 57.125C244.082 57.125 246.498 56.3542 248.415 54.8125C250.332 53.2708 251.748 51.2187 252.665 48.6562C253.602 46.0937 254.071 43.2708 254.071 40.1875C254.071 37.125 253.602 34.3125 252.665 31.75C251.748 29.1667 250.332 27.0937 248.415 25.5312C246.498 23.9687 244.082 23.1875 241.165 23.1875C238.227 23.1875 235.79 23.9687 233.852 25.5312C231.936 27.0937 230.509 29.1667 229.571 31.75C228.654 34.3125 228.196 37.125 228.196 40.1875C228.196 43.2708 228.654 46.0937 229.571 48.6562C230.509 51.2187 231.936 53.2708 233.852 54.8125C235.79 56.3542 238.227 57.125 241.165 57.125ZM287.507 64.9375C283.632 64.9375 280.174 63.9479 277.132 61.9687C274.111 59.9687 271.736 57.125 270.007 53.4375C268.299 49.7292 267.445 45.2812 267.445 40.0937C267.445 34.9062 268.309 30.4687 270.038 26.7812C271.788 23.0937 274.184 20.2708 277.226 18.3125C280.267 16.3542 283.715 15.375 287.57 15.375C290.549 15.375 292.945 15.875 294.757 16.875C296.59 17.8542 298.007 19 299.007 20.3125C300.028 21.625 300.82 22.7812 301.382 23.7812H301.945V-1.90735e-06H311.288V64H302.163V56.5312H301.382C300.82 57.5521 300.007 58.7187 298.945 60.0312C297.903 61.3437 296.465 62.4896 294.632 63.4687C292.799 64.4479 290.424 64.9375 287.507 64.9375ZM289.57 56.9687C292.257 56.9687 294.528 56.2604 296.382 54.8437C298.257 53.4062 299.674 51.4167 300.632 48.875C301.611 46.3333 302.101 43.375 302.101 40C302.101 36.6667 301.622 33.75 300.663 31.25C299.705 28.75 298.299 26.8021 296.445 25.4062C294.59 24.0104 292.299 23.3125 289.57 23.3125C286.757 23.3125 284.413 24.0417 282.538 25.5C280.663 26.9583 279.247 28.9479 278.288 31.4687C277.351 33.9896 276.882 36.8333 276.882 40C276.882 43.2083 277.361 46.0937 278.32 48.6562C279.278 51.2187 280.695 53.25 282.57 54.75C284.465 56.2292 286.799 56.9687 289.57 56.9687ZM350.63 44.0937V16H360.005V64H350.818V55.6875H350.318C349.214 58.25 347.443 60.3854 345.005 62.0938C342.589 63.7813 339.578 64.625 335.974 64.625C332.891 64.625 330.162 63.9479 327.787 62.5938C325.433 61.2188 323.578 59.1875 322.224 56.5C320.891 53.8125 320.224 50.4896 320.224 46.5312V16H329.568V45.4062C329.568 48.6771 330.474 51.2812 332.287 53.2187C334.099 55.1562 336.453 56.125 339.349 56.125C341.099 56.125 342.839 55.6875 344.568 54.8125C346.318 53.9375 347.766 52.6146 348.912 50.8437C350.078 49.0729 350.651 46.8229 350.63 44.0937ZM388.379 64.9688C383.733 64.9688 379.733 63.9167 376.379 61.8125C373.046 59.6875 370.483 56.7604 368.691 53.0312C366.9 49.3021 366.004 45.0312 366.004 40.2187C366.004 35.3437 366.921 31.0417 368.754 27.3125C370.587 23.5625 373.171 20.6354 376.504 18.5312C379.837 16.4271 383.764 15.375 388.285 15.375C391.931 15.375 395.181 16.0521 398.035 17.4062C400.889 18.7396 403.191 20.6146 404.941 23.0312C406.712 25.4479 407.764 28.2708 408.098 31.5H399.004C398.504 29.25 397.358 27.3125 395.566 25.6875C393.796 24.0625 391.421 23.25 388.441 23.25C385.837 23.25 383.556 23.9375 381.598 25.3125C379.66 26.6667 378.15 28.6042 377.066 31.125C375.983 33.625 375.441 36.5833 375.441 40C375.441 43.5 375.973 46.5208 377.035 49.0625C378.098 51.6042 379.598 53.5729 381.535 54.9687C383.493 56.3646 385.796 57.0625 388.441 57.0625C390.212 57.0625 391.816 56.7396 393.254 56.0938C394.712 55.4271 395.931 54.4792 396.91 53.25C397.91 52.0208 398.608 50.5417 399.004 48.8125H408.098C407.764 51.9167 406.754 54.6875 405.066 57.125C403.379 59.5625 401.118 61.4792 398.285 62.875C395.473 64.2708 392.171 64.9688 388.379 64.9688ZM436.096 16V23.5H409.877V16H436.096ZM416.909 4.5H426.252V49.9062C426.252 51.7187 426.523 53.0833 427.065 54C427.606 54.8958 428.304 55.5104 429.159 55.8437C430.034 56.1562 430.981 56.3125 432.002 56.3125C432.752 56.3125 433.409 56.2604 433.971 56.1562C434.534 56.0521 434.971 55.9687 435.284 55.9062L436.971 63.625C436.429 63.8333 435.659 64.0417 434.659 64.25C433.659 64.4792 432.409 64.6042 430.909 64.625C428.45 64.6667 426.159 64.2292 424.034 63.3125C421.909 62.3958 420.19 60.9792 418.877 59.0625C417.565 57.1458 416.909 54.7396 416.909 51.8438V4.5ZM20.7055 156.938C16.8305 156.938 13.3721 155.948 10.3305 153.969C7.30964 151.969 4.93464 149.125 3.20547 145.437C1.49714 141.729 0.642975 137.281 0.642975 132.094C0.642975 126.906 1.50756 122.469 3.23673 118.781C4.98673 115.094 7.38256 112.271 10.4242 110.313C13.4659 108.354 16.9138 107.375 20.768 107.375C23.7471 107.375 26.143 107.875 27.9555 108.875C29.7888 109.854 31.2055 111 32.2055 112.312C33.2263 113.625 34.018 114.781 34.5805 115.781H35.143V92H44.4867V156H35.3617V148.531H34.5805C34.018 149.552 33.2055 150.719 32.143 152.031C31.1013 153.344 29.6638 154.49 27.8305 155.469C25.9971 156.448 23.6221 156.938 20.7055 156.938ZM22.768 148.969C25.4555 148.969 27.7263 148.26 29.5805 146.844C31.4555 145.406 32.8721 143.417 33.8305 140.875C34.8096 138.333 35.2992 135.375 35.2992 132C35.2992 128.667 34.8201 125.75 33.8617 123.25C32.9034 120.75 31.4971 118.802 29.643 117.406C27.7888 116.01 25.4971 115.312 22.768 115.312C19.9555 115.312 17.6117 116.042 15.7367 117.5C13.8617 118.958 12.4451 120.948 11.4867 123.469C10.5492 125.99 10.0805 128.833 10.0805 132C10.0805 135.208 10.5596 138.094 11.518 140.656C12.4763 143.219 13.893 145.25 15.768 146.75C17.6638 148.229 19.9971 148.969 22.768 148.969ZM74.1102 156.969C69.381 156.969 65.3081 155.958 61.8914 153.938C58.4956 151.896 55.8706 149.031 54.0164 145.344C52.1831 141.635 51.2664 137.292 51.2664 132.312C51.2664 127.396 52.1831 123.062 54.0164 119.312C55.8706 115.562 58.4539 112.635 61.7664 110.531C65.0997 108.427 68.9956 107.375 73.4539 107.375C76.1622 107.375 78.7872 107.823 81.3289 108.719C83.8706 109.615 86.1518 111.021 88.1727 112.937C90.1935 114.854 91.7872 117.344 92.9539 120.406C94.1206 123.448 94.7039 127.146 94.7039 131.5V134.812H56.5477V127.812H85.5477C85.5477 125.354 85.0477 123.177 84.0477 121.281C83.0477 119.365 81.6414 117.854 79.8289 116.75C78.0372 115.646 75.9331 115.094 73.5164 115.094C70.8914 115.094 68.5997 115.74 66.6414 117.031C64.7039 118.302 63.2039 119.969 62.1414 122.031C61.0997 124.073 60.5789 126.292 60.5789 128.688V134.156C60.5789 137.365 61.1414 140.094 62.2664 142.344C63.4122 144.594 65.006 146.312 67.0477 147.5C69.0893 148.667 71.4747 149.25 74.2039 149.25C75.9747 149.25 77.5893 149 79.0477 148.5C80.506 147.979 81.7664 147.208 82.8289 146.187C83.8914 145.167 84.7039 143.906 85.2664 142.406L94.1102 144C93.4018 146.604 92.131 148.885 90.2977 150.844C88.4852 152.781 86.2039 154.292 83.4539 155.375C80.7247 156.438 77.6102 156.969 74.1102 156.969ZM136.64 119.719L128.171 121.219C127.817 120.135 127.254 119.104 126.484 118.125C125.734 117.146 124.713 116.344 123.421 115.719C122.129 115.094 120.515 114.781 118.577 114.781C115.932 114.781 113.723 115.375 111.952 116.562C110.182 117.729 109.296 119.24 109.296 121.094C109.296 122.698 109.89 123.99 111.077 124.969C112.265 125.948 114.182 126.75 116.827 127.375L124.452 129.125C128.869 130.146 132.161 131.719 134.327 133.844C136.494 135.969 137.577 138.729 137.577 142.125C137.577 145 136.744 147.562 135.077 149.812C133.432 152.042 131.129 153.792 128.171 155.062C125.234 156.333 121.827 156.969 117.952 156.969C112.577 156.969 108.192 155.823 104.796 153.531C101.4 151.219 99.3169 147.937 98.5461 143.687L107.577 142.312C108.14 144.667 109.296 146.448 111.046 147.656C112.796 148.844 115.077 149.437 117.89 149.437C120.952 149.437 123.4 148.802 125.234 147.531C127.067 146.24 127.984 144.667 127.984 142.813C127.984 141.312 127.421 140.052 126.296 139.031C125.192 138.01 123.494 137.24 121.202 136.719L113.077 134.937C108.598 133.917 105.286 132.292 103.14 130.063C101.015 127.833 99.9523 125.01 99.9523 121.594C99.9523 118.76 100.744 116.281 102.327 114.156C103.911 112.031 106.098 110.375 108.89 109.187C111.682 107.979 114.879 107.375 118.484 107.375C123.671 107.375 127.754 108.5 130.734 110.75C133.713 112.979 135.682 115.969 136.64 119.719ZM143.451 156V108H152.795V156H143.451ZM148.17 100.594C146.545 100.594 145.149 100.052 143.982 98.9687C142.836 97.8646 142.263 96.5521 142.263 95.0312C142.263 93.4896 142.836 92.1771 143.982 91.0937C145.149 89.9896 146.545 89.4375 148.17 89.4375C149.795 89.4375 151.18 89.9896 152.326 91.0937C153.492 92.1771 154.076 93.4896 154.076 95.0312C154.076 96.5521 153.492 97.8646 152.326 98.9687C151.18 100.052 149.795 100.594 148.17 100.594ZM181.09 175C177.277 175 173.996 174.5 171.246 173.5C168.517 172.5 166.288 171.177 164.559 169.531C162.829 167.885 161.538 166.083 160.684 164.125L168.715 160.812C169.277 161.729 170.027 162.698 170.965 163.719C171.923 164.76 173.215 165.646 174.84 166.375C176.486 167.104 178.6 167.469 181.184 167.469C184.725 167.469 187.652 166.604 189.965 164.875C192.277 163.167 193.434 160.437 193.434 156.688V147.25H192.84C192.277 148.271 191.465 149.406 190.402 150.656C189.361 151.906 187.923 152.99 186.09 153.906C184.257 154.823 181.871 155.281 178.934 155.281C175.142 155.281 171.725 154.396 168.684 152.625C165.663 150.833 163.267 148.198 161.496 144.719C159.746 141.219 158.871 136.917 158.871 131.812C158.871 126.708 159.736 122.333 161.465 118.687C163.215 115.042 165.611 112.25 168.652 110.313C171.694 108.354 175.142 107.375 178.996 107.375C181.975 107.375 184.382 107.875 186.215 108.875C188.048 109.854 189.475 111 190.496 112.312C191.538 113.625 192.34 114.781 192.902 115.781H193.59V108H202.746V157.063C202.746 161.188 201.788 164.573 199.871 167.219C197.954 169.865 195.361 171.823 192.09 173.094C188.84 174.365 185.173 175 181.09 175ZM180.996 147.531C183.684 147.531 185.954 146.906 187.809 145.656C189.684 144.385 191.1 142.573 192.059 140.219C193.038 137.844 193.527 135 193.527 131.688C193.527 128.458 193.048 125.615 192.09 123.156C191.132 120.698 189.725 118.781 187.871 117.406C186.017 116.01 183.725 115.312 180.996 115.312C178.184 115.312 175.84 116.042 173.965 117.5C172.09 118.937 170.673 120.896 169.715 123.375C168.777 125.854 168.309 128.625 168.309 131.688C168.309 134.833 168.788 137.594 169.746 139.969C170.704 142.344 172.121 144.198 173.996 145.531C175.892 146.865 178.225 147.531 180.996 147.531ZM220.221 127.5V156H210.877V108H219.846V115.812H220.44C221.544 113.271 223.273 111.229 225.627 109.687C228.002 108.146 230.992 107.375 234.596 107.375C237.867 107.375 240.732 108.063 243.19 109.438C245.648 110.792 247.554 112.812 248.909 115.5C250.263 118.187 250.94 121.51 250.94 125.469V156H241.596V126.594C241.596 123.115 240.69 120.396 238.877 118.437C237.065 116.458 234.575 115.469 231.409 115.469C229.242 115.469 227.315 115.937 225.627 116.875C223.961 117.812 222.638 119.187 221.659 121C220.7 122.792 220.221 124.958 220.221 127.5ZM279.759 156.969C275.029 156.969 270.957 155.958 267.54 153.938C264.144 151.896 261.519 149.031 259.665 145.344C257.832 141.635 256.915 137.292 256.915 132.312C256.915 127.396 257.832 123.062 259.665 119.312C261.519 115.562 264.102 112.635 267.415 110.531C270.748 108.427 274.644 107.375 279.102 107.375C281.811 107.375 284.436 107.823 286.977 108.719C289.519 109.615 291.8 111.021 293.821 112.937C295.842 114.854 297.436 117.344 298.602 120.406C299.769 123.448 300.352 127.146 300.352 131.5V134.812H262.196V127.812H291.196C291.196 125.354 290.696 123.177 289.696 121.281C288.696 119.365 287.29 117.854 285.477 116.75C283.686 115.646 281.582 115.094 279.165 115.094C276.54 115.094 274.248 115.74 272.29 117.031C270.352 118.302 268.852 119.969 267.79 122.031C266.748 124.073 266.227 126.292 266.227 128.688V134.156C266.227 137.365 266.79 140.094 267.915 142.344C269.061 144.594 270.654 146.312 272.696 147.5C274.738 148.667 277.123 149.25 279.852 149.25C281.623 149.25 283.238 149 284.696 148.5C286.154 147.979 287.415 147.208 288.477 146.187C289.54 145.167 290.352 143.906 290.915 142.406L299.759 144C299.05 146.604 297.779 148.885 295.946 150.844C294.134 152.781 291.852 154.292 289.102 155.375C286.373 156.438 283.259 156.969 279.759 156.969ZM306.32 156V108H315.351V115.625H315.851C316.726 113.042 318.267 111.01 320.476 109.531C322.705 108.031 325.226 107.281 328.038 107.281C328.622 107.281 329.309 107.302 330.101 107.344C330.913 107.385 331.549 107.437 332.007 107.5V116.437C331.632 116.333 330.965 116.219 330.007 116.094C329.049 115.948 328.09 115.875 327.132 115.875C324.924 115.875 322.955 116.344 321.226 117.281C319.517 118.198 318.163 119.479 317.163 121.125C316.163 122.75 315.663 124.604 315.663 126.687V156H306.32ZM376.988 108V115.5H350.77V108H376.988ZM357.801 96.5H367.145V141.906C367.145 143.719 367.415 145.083 367.957 146C368.499 146.896 369.197 147.51 370.051 147.844C370.926 148.156 371.874 148.312 372.895 148.312C373.645 148.312 374.301 148.26 374.863 148.156C375.426 148.052 375.863 147.969 376.176 147.906L377.863 155.625C377.322 155.833 376.551 156.042 375.551 156.25C374.551 156.479 373.301 156.604 371.801 156.625C369.342 156.667 367.051 156.229 364.926 155.312C362.801 154.396 361.082 152.979 359.77 151.062C358.457 149.146 357.801 146.74 357.801 143.844V96.5ZM393.299 127.5V156H383.955V92H393.174V115.812H393.768C394.893 113.229 396.612 111.177 398.924 109.656C401.237 108.135 404.258 107.375 407.987 107.375C411.278 107.375 414.153 108.052 416.612 109.406C419.091 110.76 421.008 112.781 422.362 115.469C423.737 118.135 424.424 121.469 424.424 125.469V156H415.08V126.594C415.08 123.073 414.174 120.344 412.362 118.406C410.549 116.448 408.028 115.469 404.799 115.469C402.591 115.469 400.612 115.937 398.862 116.875C397.133 117.812 395.768 119.187 394.768 121C393.789 122.792 393.299 124.958 393.299 127.5ZM446.462 157.063C443.42 157.063 440.67 156.5 438.212 155.375C435.753 154.229 433.805 152.573 432.368 150.406C430.951 148.24 430.243 145.583 430.243 142.437C430.243 139.729 430.764 137.5 431.805 135.75C432.847 134 434.253 132.615 436.024 131.594C437.795 130.573 439.774 129.802 441.962 129.281C444.149 128.76 446.378 128.365 448.649 128.094C451.524 127.76 453.858 127.49 455.649 127.281C457.441 127.052 458.743 126.687 459.555 126.188C460.368 125.687 460.774 124.875 460.774 123.75V123.531C460.774 120.802 460.003 118.687 458.462 117.187C456.941 115.687 454.67 114.937 451.649 114.937C448.503 114.937 446.024 115.635 444.212 117.031C442.42 118.406 441.18 119.937 440.493 121.625L431.712 119.625C432.753 116.708 434.274 114.354 436.274 112.562C438.295 110.75 440.618 109.437 443.243 108.625C445.868 107.792 448.628 107.375 451.524 107.375C453.441 107.375 455.472 107.604 457.618 108.063C459.785 108.5 461.805 109.312 463.68 110.5C465.576 111.687 467.128 113.385 468.337 115.594C469.545 117.781 470.149 120.625 470.149 124.125V156H461.024V149.437H460.649C460.045 150.646 459.139 151.833 457.93 153C456.722 154.167 455.17 155.135 453.274 155.906C451.378 156.677 449.108 157.063 446.462 157.063ZM448.493 149.562C451.076 149.562 453.285 149.052 455.118 148.031C456.972 147.01 458.378 145.677 459.337 144.031C460.316 142.365 460.805 140.583 460.805 138.688V132.5C460.472 132.833 459.826 133.146 458.868 133.437C457.93 133.708 456.858 133.948 455.649 134.156C454.441 134.344 453.264 134.521 452.118 134.688C450.972 134.833 450.014 134.958 449.243 135.062C447.43 135.292 445.774 135.677 444.274 136.219C442.795 136.76 441.608 137.542 440.712 138.562C439.837 139.562 439.399 140.896 439.399 142.562C439.399 144.875 440.253 146.625 441.962 147.812C443.67 148.979 445.847 149.562 448.493 149.562ZM500.601 108V115.5H474.382V108H500.601ZM481.413 96.5H490.757V141.906C490.757 143.719 491.028 145.083 491.57 146C492.111 146.896 492.809 147.51 493.663 147.844C494.538 148.156 495.486 148.312 496.507 148.312C497.257 148.312 497.913 148.26 498.476 148.156C499.038 148.052 499.476 147.969 499.788 147.906L501.476 155.625C500.934 155.833 500.163 156.042 499.163 156.25C498.163 156.479 496.913 156.604 495.413 156.625C492.955 156.667 490.663 156.229 488.538 155.312C486.413 154.396 484.695 152.979 483.382 151.062C482.07 149.146 481.413 146.74 481.413 143.844V96.5ZM74.3438 211.719L65.875 213.219C65.5208 212.135 64.9583 211.104 64.1875 210.125C63.4375 209.146 62.4167 208.344 61.125 207.719C59.8333 207.094 58.2188 206.781 56.2813 206.781C53.6354 206.781 51.4271 207.375 49.6563 208.562C47.8854 209.729 47 211.24 47 213.094C47 214.698 47.5938 215.99 48.7813 216.969C49.9688 217.948 51.8854 218.75 54.5313 219.375L62.1563 221.125C66.5729 222.146 69.8646 223.719 72.0313 225.844C74.1979 227.969 75.2813 230.729 75.2813 234.125C75.2813 237 74.4479 239.562 72.7813 241.812C71.1354 244.042 68.8333 245.792 65.875 247.062C62.9375 248.333 59.5313 248.969 55.6563 248.969C50.2813 248.969 45.8958 247.823 42.5 245.531C39.1042 243.219 37.0208 239.937 36.25 235.687L45.2812 234.312C45.8438 236.667 47 238.448 48.75 239.656C50.5 240.844 52.7813 241.437 55.5938 241.437C58.6563 241.437 61.1042 240.802 62.9375 239.531C64.7708 238.24 65.6875 236.667 65.6875 234.813C65.6875 233.312 65.125 232.052 64 231.031C62.8958 230.01 61.1979 229.24 58.9062 228.719L50.7813 226.937C46.3021 225.917 42.9896 224.292 40.8438 222.063C38.7188 219.833 37.6562 217.01 37.6562 213.594C37.6562 210.76 38.4479 208.281 40.0313 206.156C41.6146 204.031 43.8021 202.375 46.5938 201.187C49.3854 199.979 52.5833 199.375 56.1875 199.375C61.375 199.375 65.4583 200.5 68.4375 202.75C71.4167 204.979 73.3854 207.969 74.3438 211.719ZM81.1547 266V200H90.2797V207.781H91.0609C91.6026 206.781 92.3839 205.625 93.4047 204.312C94.4255 203 95.8422 201.854 97.6547 200.875C99.4672 199.875 101.863 199.375 104.842 199.375C108.717 199.375 112.176 200.354 115.217 202.313C118.259 204.271 120.644 207.094 122.373 210.781C124.123 214.469 124.998 218.906 124.998 224.094C124.998 229.281 124.134 233.729 122.405 237.437C120.676 241.125 118.301 243.969 115.28 245.969C112.259 247.948 108.811 248.938 104.936 248.938C102.019 248.938 99.6339 248.448 97.7797 247.469C95.9464 246.49 94.5089 245.344 93.4672 244.031C92.4255 242.719 91.6234 241.552 91.0609 240.531H90.4984V266H81.1547ZM90.3109 224C90.3109 227.375 90.8005 230.333 91.7797 232.875C92.7589 235.417 94.1755 237.406 96.0297 238.844C97.8839 240.26 100.155 240.969 102.842 240.969C105.634 240.969 107.967 240.229 109.842 238.75C111.717 237.25 113.134 235.219 114.092 232.656C115.071 230.094 115.561 227.208 115.561 224C115.561 220.833 115.082 217.99 114.123 215.469C113.186 212.948 111.769 210.958 109.873 209.5C107.998 208.042 105.655 207.312 102.842 207.312C100.134 207.312 97.8422 208.01 95.9672 209.406C94.113 210.802 92.7068 212.75 91.7484 215.25C90.7901 217.75 90.3109 220.667 90.3109 224ZM151.755 248.969C147.026 248.969 142.953 247.958 139.536 245.938C136.14 243.896 133.515 241.031 131.661 237.344C129.828 233.635 128.911 229.292 128.911 224.312C128.911 219.396 129.828 215.062 131.661 211.312C133.515 207.562 136.098 204.635 139.411 202.531C142.744 200.427 146.64 199.375 151.098 199.375C153.807 199.375 156.432 199.823 158.973 200.719C161.515 201.615 163.796 203.021 165.817 204.937C167.838 206.854 169.432 209.344 170.598 212.406C171.765 215.448 172.348 219.146 172.348 223.5V226.812H134.192V219.812H163.192C163.192 217.354 162.692 215.177 161.692 213.281C160.692 211.365 159.286 209.854 157.473 208.75C155.682 207.646 153.578 207.094 151.161 207.094C148.536 207.094 146.244 207.74 144.286 209.031C142.348 210.302 140.848 211.969 139.786 214.031C138.744 216.073 138.223 218.292 138.223 220.688V226.156C138.223 229.365 138.786 232.094 139.911 234.344C141.057 236.594 142.651 238.312 144.692 239.5C146.734 240.667 149.119 241.25 151.848 241.25C153.619 241.25 155.234 241 156.692 240.5C158.151 239.979 159.411 239.208 160.473 238.187C161.536 237.167 162.348 235.906 162.911 234.406L171.755 236C171.046 238.604 169.776 240.885 167.942 242.844C166.13 244.781 163.848 246.292 161.098 247.375C158.369 248.438 155.255 248.969 151.755 248.969ZM192.284 249.063C189.243 249.063 186.493 248.5 184.034 247.375C181.576 246.229 179.628 244.573 178.191 242.406C176.774 240.24 176.066 237.583 176.066 234.437C176.066 231.729 176.586 229.5 177.628 227.75C178.67 226 180.076 224.615 181.847 223.594C183.618 222.573 185.597 221.802 187.784 221.281C189.972 220.76 192.201 220.365 194.472 220.094C197.347 219.76 199.68 219.49 201.472 219.281C203.264 219.052 204.566 218.687 205.378 218.188C206.191 217.687 206.597 216.875 206.597 215.75V215.531C206.597 212.802 205.826 210.687 204.284 209.187C202.764 207.687 200.493 206.937 197.472 206.937C194.326 206.937 191.847 207.635 190.034 209.031C188.243 210.406 187.003 211.937 186.316 213.625L177.534 211.625C178.576 208.708 180.097 206.354 182.097 204.562C184.118 202.75 186.441 201.437 189.066 200.625C191.691 199.792 194.451 199.375 197.347 199.375C199.264 199.375 201.295 199.604 203.441 200.063C205.607 200.5 207.628 201.312 209.503 202.5C211.399 203.687 212.951 205.385 214.159 207.594C215.368 209.781 215.972 212.625 215.972 216.125V248H206.847V241.437H206.472C205.868 242.646 204.961 243.833 203.753 245C202.545 246.167 200.993 247.135 199.097 247.906C197.201 248.677 194.93 249.063 192.284 249.063ZM194.316 241.562C196.899 241.562 199.107 241.052 200.941 240.031C202.795 239.01 204.201 237.677 205.159 236.031C206.139 234.365 206.628 232.583 206.628 230.688V224.5C206.295 224.833 205.649 225.146 204.691 225.437C203.753 225.708 202.68 225.948 201.472 226.156C200.264 226.344 199.086 226.521 197.941 226.688C196.795 226.833 195.836 226.958 195.066 227.062C193.253 227.292 191.597 227.677 190.097 228.219C188.618 228.76 187.43 229.542 186.534 230.562C185.659 231.562 185.222 232.896 185.222 234.562C185.222 236.875 186.076 238.625 187.784 239.812C189.493 240.979 191.67 241.562 194.316 241.562ZM232.611 231.719L232.548 220.312H234.173L253.298 200H264.486L242.673 223.125H241.205L232.611 231.719ZM224.017 248V184H233.361V248H224.017ZM254.33 248L237.142 225.187L243.58 218.656L265.798 248H254.33ZM304.57 211.719L296.102 213.219C295.747 212.135 295.185 211.104 294.414 210.125C293.664 209.146 292.643 208.344 291.352 207.719C290.06 207.094 288.445 206.781 286.508 206.781C283.862 206.781 281.654 207.375 279.883 208.562C278.112 209.729 277.227 211.24 277.227 213.094C277.227 214.698 277.82 215.99 279.008 216.969C280.195 217.948 282.112 218.75 284.758 219.375L292.383 221.125C296.799 222.146 300.091 223.719 302.258 225.844C304.424 227.969 305.508 230.729 305.508 234.125C305.508 237 304.674 239.562 303.008 241.812C301.362 244.042 299.06 245.792 296.102 247.062C293.164 248.333 289.758 248.969 285.883 248.969C280.508 248.969 276.122 247.823 272.727 245.531C269.331 243.219 267.247 239.937 266.477 235.687L275.508 234.312C276.07 236.667 277.227 238.448 278.977 239.656C280.727 240.844 283.008 241.437 285.82 241.437C288.883 241.437 291.331 240.802 293.164 239.531C294.997 238.24 295.914 236.667 295.914 234.813C295.914 233.312 295.352 232.052 294.227 231.031C293.122 230.01 291.424 229.24 289.133 228.719L281.008 226.937C276.529 225.917 273.216 224.292 271.07 222.063C268.945 219.833 267.883 217.01 267.883 213.594C267.883 210.76 268.674 208.281 270.258 206.156C271.841 204.031 274.029 202.375 276.82 201.187C279.612 199.979 282.81 199.375 286.414 199.375C291.602 199.375 295.685 200.5 298.664 202.75C301.643 204.979 303.612 207.969 304.57 211.719ZM348.239 248.938C344.364 248.938 340.906 247.948 337.864 245.969C334.843 243.969 332.468 241.125 330.739 237.437C329.031 233.729 328.177 229.281 328.177 224.094C328.177 218.906 329.041 214.469 330.77 210.781C332.52 207.094 334.916 204.271 337.958 202.313C340.999 200.354 344.447 199.375 348.302 199.375C351.281 199.375 353.677 199.875 355.489 200.875C357.322 201.854 358.739 203 359.739 204.312C360.76 205.625 361.552 206.781 362.114 207.781H362.677V184H372.02V248H362.895V240.531H362.114C361.552 241.552 360.739 242.719 359.677 244.031C358.635 245.344 357.197 246.49 355.364 247.469C353.531 248.448 351.156 248.938 348.239 248.938ZM350.302 240.969C352.989 240.969 355.26 240.26 357.114 238.844C358.989 237.406 360.406 235.417 361.364 232.875C362.343 230.333 362.833 227.375 362.833 224C362.833 220.667 362.354 217.75 361.395 215.25C360.437 212.75 359.031 210.802 357.177 209.406C355.322 208.01 353.031 207.312 350.302 207.312C347.489 207.312 345.145 208.042 343.27 209.5C341.395 210.958 339.979 212.948 339.02 215.469C338.083 217.99 337.614 220.833 337.614 224C337.614 227.208 338.093 230.094 339.052 232.656C340.01 235.219 341.427 237.25 343.302 238.75C345.197 240.229 347.531 240.969 350.302 240.969ZM401.644 248.969C396.915 248.969 392.842 247.958 389.425 245.938C386.029 243.896 383.404 241.031 381.55 237.344C379.717 233.635 378.8 229.292 378.8 224.312C378.8 219.396 379.717 215.062 381.55 211.312C383.404 207.562 385.987 204.635 389.3 202.531C392.633 200.427 396.529 199.375 400.987 199.375C403.696 199.375 406.321 199.823 408.862 200.719C411.404 201.615 413.685 203.021 415.706 204.937C417.727 206.854 419.321 209.344 420.487 212.406C421.654 215.448 422.237 219.146 422.237 223.5V226.812H384.081V219.812H413.081C413.081 217.354 412.581 215.177 411.581 213.281C410.581 211.365 409.175 209.854 407.362 208.75C405.571 207.646 403.467 207.094 401.05 207.094C398.425 207.094 396.133 207.74 394.175 209.031C392.237 210.302 390.737 211.969 389.675 214.031C388.633 216.073 388.112 218.292 388.112 220.688V226.156C388.112 229.365 388.675 232.094 389.8 234.344C390.946 236.594 392.54 238.312 394.581 239.5C396.623 240.667 399.008 241.25 401.737 241.25C403.508 241.25 405.123 241 406.581 240.5C408.04 239.979 409.3 239.208 410.362 238.187C411.425 237.167 412.237 235.906 412.8 234.406L421.644 236C420.935 238.604 419.665 240.885 417.831 242.844C416.019 244.781 413.737 246.292 410.987 247.375C408.258 248.438 405.144 248.969 401.644 248.969ZM467.892 200L450.486 248H440.486L423.048 200H433.08L445.236 236.937H445.736L457.861 200H467.892ZM475.422 248.594C473.714 248.594 472.245 247.99 471.016 246.781C469.786 245.552 469.172 244.073 469.172 242.344C469.172 240.635 469.786 239.177 471.016 237.969C472.245 236.74 473.714 236.125 475.422 236.125C477.13 236.125 478.599 236.74 479.828 237.969C481.057 239.177 481.672 240.635 481.672 242.344C481.672 243.49 481.38 244.542 480.797 245.5C480.234 246.437 479.484 247.187 478.547 247.75C477.609 248.313 476.568 248.594 475.422 248.594Z" fill="#131316"/>
</svg>
