<svg width="493" height="266" viewBox="0 0 493 266" fill="none" xmlns="http://www.w3.org/2000/svg">
<path d="M70.0266 64H61.9016L85.4016 -1.90735e-06H93.4016L116.902 64H108.777L89.6516 10.125H89.1516L70.0266 64ZM73.0266 39H105.777V45.875H73.0266V39ZM141.82 82V16H148.945V23.625H149.82C150.362 22.7917 151.112 21.7292 152.07 20.4375C153.049 19.125 154.445 17.9583 156.258 16.9375C158.091 15.8958 160.57 15.375 163.695 15.375C167.737 15.375 171.299 16.3854 174.383 18.4062C177.466 20.4271 179.872 23.2917 181.602 27C183.331 30.7083 184.195 35.0833 184.195 40.125C184.195 45.2083 183.331 49.6146 181.602 53.3438C179.872 57.0521 177.477 59.9271 174.414 61.9687C171.352 63.9896 167.82 65 163.82 65C160.737 65 158.268 64.4896 156.414 63.4687C154.56 62.4271 153.133 61.25 152.133 59.9375C151.133 58.6042 150.362 57.5 149.82 56.625H149.195V82H141.82ZM149.07 40C149.07 43.625 149.602 46.8229 150.664 49.5937C151.727 52.3437 153.279 54.5 155.32 56.0625C157.362 57.6042 159.862 58.375 162.82 58.375C165.904 58.375 168.477 57.5625 170.539 55.9375C172.622 54.2917 174.185 52.0833 175.227 49.3125C176.289 46.5208 176.82 43.4167 176.82 40C176.82 36.625 176.299 33.5833 175.258 30.875C174.237 28.1458 172.685 25.9896 170.602 24.4062C168.539 22.8021 165.945 22 162.82 22C159.82 22 157.299 22.7604 155.258 24.2812C153.216 25.7812 151.674 27.8854 150.633 30.5937C149.591 33.2812 149.07 36.4167 149.07 40ZM191.045 64V16H198.17V23.25H198.67C199.545 20.875 201.129 18.9479 203.42 17.4687C205.712 15.9896 208.295 15.25 211.17 15.25C211.712 15.25 212.389 15.2604 213.202 15.2812C214.014 15.3021 214.629 15.3333 215.045 15.375V22.875C214.795 22.8125 214.222 22.7187 213.327 22.5937C212.452 22.4479 211.524 22.375 210.545 22.375C208.212 22.375 206.129 22.8646 204.295 23.8437C202.483 24.8021 201.045 26.1354 199.983 27.8437C198.941 29.5312 198.42 31.4583 198.42 33.625V64H191.045ZM237.427 65C233.093 65 229.291 63.9687 226.02 61.9062C222.77 59.8437 220.229 56.9583 218.395 53.25C216.583 49.5417 215.677 45.2083 215.677 40.25C215.677 35.25 216.583 30.8854 218.395 27.1562C220.229 23.4271 222.77 20.5312 226.02 18.4688C229.291 16.4063 233.093 15.375 237.427 15.375C241.76 15.375 245.552 16.4063 248.802 18.4688C252.072 20.5312 254.614 23.4271 256.427 27.1562C258.26 30.8854 259.177 35.25 259.177 40.25C259.177 45.2083 258.26 49.5417 256.427 53.25C254.614 56.9583 252.072 59.8437 248.802 61.9062C245.552 63.9687 241.76 65 237.427 65ZM237.427 58.375C240.718 58.375 243.427 57.5312 245.552 55.8437C247.677 54.1562 249.249 51.9375 250.27 49.1875C251.291 46.4375 251.802 43.4583 251.802 40.25C251.802 37.0417 251.291 34.0521 250.27 31.2812C249.249 28.5104 247.677 26.2708 245.552 24.5625C243.427 22.8542 240.718 22 237.427 22C234.135 22 231.427 22.8542 229.302 24.5625C227.177 26.2708 225.604 28.5104 224.583 31.2812C223.562 34.0521 223.052 37.0417 223.052 40.25C223.052 43.4583 223.562 46.4375 224.583 49.1875C225.604 51.9375 227.177 54.1562 229.302 55.8437C231.427 57.5312 234.135 58.375 237.427 58.375ZM284.159 65C280.159 65 276.628 63.9896 273.566 61.9687C270.503 59.9271 268.107 57.0521 266.378 53.3438C264.649 49.6146 263.784 45.2083 263.784 40.125C263.784 35.0833 264.649 30.7083 266.378 27C268.107 23.2917 270.514 20.4271 273.597 18.4062C276.68 16.3854 280.243 15.375 284.284 15.375C287.409 15.375 289.878 15.8958 291.691 16.9375C293.524 17.9583 294.92 19.125 295.878 20.4375C296.857 21.7292 297.618 22.7917 298.159 23.625H298.784V-1.90735e-06H306.159V64H299.034V56.625H298.159C297.618 57.5 296.847 58.6042 295.847 59.9375C294.847 61.25 293.42 62.4271 291.566 63.4687C289.711 64.4896 287.243 65 284.159 65ZM285.159 58.375C288.118 58.375 290.618 57.6042 292.659 56.0625C294.701 54.5 296.253 52.3437 297.316 49.5937C298.378 46.8229 298.909 43.625 298.909 40C298.909 36.4167 298.389 33.2812 297.347 30.5937C296.305 27.8854 294.764 25.7812 292.722 24.2812C290.68 22.7604 288.159 22 285.159 22C282.034 22 279.43 22.8021 277.347 24.4062C275.284 25.9896 273.732 28.1458 272.691 30.875C271.67 33.5833 271.159 36.625 271.159 40C271.159 43.4167 271.68 46.5208 272.722 49.3125C273.784 52.0833 275.347 54.2917 277.409 55.9375C279.493 57.5625 282.076 58.375 285.159 58.375ZM346.541 44.375V16H353.916V64H346.541V55.875H346.041C344.916 58.3125 343.166 60.3854 340.791 62.0938C338.416 63.7813 335.416 64.625 331.791 64.625C328.791 64.625 326.124 63.9688 323.791 62.6562C321.457 61.3229 319.624 59.3229 318.291 56.6562C316.957 53.9687 316.291 50.5833 316.291 46.5V16H323.666V46C323.666 49.5 324.645 52.2917 326.603 54.375C328.582 56.4583 331.103 57.5 334.166 57.5C335.999 57.5 337.864 57.0312 339.759 56.0938C341.676 55.1562 343.28 53.7187 344.572 51.7812C345.884 49.8437 346.541 47.375 346.541 44.375ZM382.523 65C378.023 65 374.148 63.9375 370.898 61.8125C367.648 59.6875 365.148 56.7604 363.398 53.0312C361.648 49.3021 360.773 45.0417 360.773 40.25C360.773 35.375 361.669 31.0729 363.461 27.3437C365.273 23.5937 367.794 20.6667 371.023 18.5625C374.273 16.4375 378.065 15.375 382.398 15.375C385.773 15.375 388.815 16 391.523 17.25C394.232 18.5 396.451 20.25 398.18 22.5C399.909 24.75 400.982 27.375 401.398 30.375H394.023C393.461 28.1875 392.211 26.25 390.273 24.5625C388.357 22.8542 385.773 22 382.523 22C379.648 22 377.128 22.75 374.961 24.25C372.815 25.7292 371.138 27.8229 369.93 30.5312C368.742 33.2187 368.148 36.375 368.148 40C368.148 43.7083 368.732 46.9375 369.898 49.6875C371.086 52.4375 372.753 54.5729 374.898 56.0938C377.065 57.6146 379.607 58.375 382.523 58.375C384.44 58.375 386.18 58.0417 387.742 57.375C389.305 56.7083 390.628 55.75 391.711 54.5C392.794 53.25 393.565 51.75 394.023 50H401.398C400.982 52.8333 399.951 55.3854 398.305 57.6562C396.68 59.9062 394.523 61.6979 391.836 63.0312C389.169 64.3438 386.065 65 382.523 65ZM428.655 16V22.25H403.78V16H428.655ZM411.03 4.5H418.405V50.25C418.405 52.3333 418.707 53.8958 419.311 54.9375C419.936 55.9583 420.728 56.6458 421.686 57C422.665 57.3333 423.696 57.5 424.78 57.5C425.592 57.5 426.259 57.4583 426.78 57.375C427.3 57.2708 427.717 57.1875 428.03 57.125L429.53 63.75C429.03 63.9375 428.332 64.125 427.436 64.3125C426.54 64.5208 425.405 64.625 424.03 64.625C421.946 64.625 419.905 64.1771 417.905 63.2812C415.925 62.3854 414.28 61.0208 412.967 59.1875C411.675 57.3542 411.03 55.0417 411.03 52.25V4.5ZM21.0531 157C17.0531 157 13.5219 155.99 10.4594 153.969C7.39688 151.927 5.00105 149.052 3.27188 145.344C1.54271 141.615 0.678131 137.208 0.678131 132.125C0.678131 127.083 1.54271 122.708 3.27188 119C5.00105 115.292 7.4073 112.427 10.4906 110.406C13.574 108.385 17.1365 107.375 21.1781 107.375C24.3031 107.375 26.7719 107.896 28.5844 108.938C30.4177 109.958 31.8135 111.125 32.7719 112.437C33.7511 113.729 34.5115 114.792 35.0531 115.625H35.6781V92H43.0531V156H35.9281V148.625H35.0531C34.5115 149.5 33.7406 150.604 32.7406 151.937C31.7406 153.25 30.3135 154.427 28.4594 155.469C26.6052 156.49 24.1365 157 21.0531 157ZM22.0531 150.375C25.0115 150.375 27.5115 149.604 29.5531 148.062C31.5948 146.5 33.1469 144.344 34.2094 141.594C35.2719 138.823 35.8031 135.625 35.8031 132C35.8031 128.417 35.2823 125.281 34.2406 122.594C33.199 119.885 31.6573 117.781 29.6156 116.281C27.574 114.76 25.0531 114 22.0531 114C18.9281 114 16.324 114.802 14.2406 116.406C12.1781 117.99 10.626 120.146 9.58438 122.875C8.56355 125.583 8.05313 128.625 8.05313 132C8.05313 135.417 8.57397 138.521 9.61563 141.312C10.6781 144.083 12.2406 146.292 14.3031 147.937C16.3865 149.563 18.9698 150.375 22.0531 150.375ZM73.3094 157C68.6844 157 64.6948 155.979 61.3406 153.938C58.0073 151.875 55.4344 149 53.6219 145.312C51.8302 141.604 50.9344 137.292 50.9344 132.375C50.9344 127.458 51.8302 123.125 53.6219 119.375C55.4344 115.604 57.9552 112.667 61.1844 110.562C64.4344 108.437 68.226 107.375 72.5594 107.375C75.0594 107.375 77.5281 107.792 79.9656 108.625C82.4031 109.458 84.6219 110.812 86.6219 112.688C88.6219 114.542 90.2156 117 91.4031 120.062C92.5906 123.125 93.1844 126.896 93.1844 131.375V134.5H56.1844V128.125H85.6844C85.6844 125.417 85.1427 123 84.0594 120.875C82.9969 118.75 81.476 117.073 79.4969 115.844C77.5385 114.615 75.226 114 72.5594 114C69.6219 114 67.0802 114.729 64.9344 116.187C62.8094 117.625 61.174 119.5 60.0281 121.812C58.8823 124.125 58.3094 126.604 58.3094 129.25V133.5C58.3094 137.125 58.9344 140.198 60.1844 142.719C61.4552 145.219 63.2156 147.125 65.4656 148.438C67.7156 149.729 70.3302 150.375 73.3094 150.375C75.2469 150.375 76.9969 150.104 78.5594 149.562C80.1427 149 81.5073 148.167 82.6531 147.062C83.799 145.937 84.6844 144.542 85.3094 142.875L92.4344 144.875C91.6844 147.292 90.424 149.417 88.6531 151.25C86.8823 153.062 84.6948 154.479 82.0906 155.5C79.4865 156.5 76.5594 157 73.3094 157ZM134.003 118.75L127.378 120.625C126.961 119.521 126.347 118.448 125.534 117.406C124.743 116.344 123.659 115.469 122.284 114.781C120.909 114.094 119.149 113.75 117.003 113.75C114.066 113.75 111.618 114.427 109.659 115.781C107.722 117.115 106.753 118.812 106.753 120.875C106.753 122.708 107.42 124.156 108.753 125.219C110.086 126.281 112.17 127.167 115.003 127.875L122.128 129.625C126.42 130.667 129.618 132.26 131.722 134.406C133.826 136.531 134.878 139.271 134.878 142.625C134.878 145.375 134.086 147.833 132.503 150C130.941 152.167 128.753 153.875 125.941 155.125C123.128 156.375 119.857 157 116.128 157C111.232 157 107.18 155.938 103.972 153.812C100.764 151.687 98.7323 148.583 97.8781 144.5L104.878 142.75C105.545 145.333 106.805 147.271 108.659 148.562C110.534 149.854 112.982 150.5 116.003 150.5C119.441 150.5 122.17 149.771 124.191 148.312C126.232 146.833 127.253 145.062 127.253 143C127.253 141.333 126.67 139.937 125.503 138.812C124.336 137.667 122.545 136.812 120.128 136.25L112.128 134.375C107.732 133.333 104.503 131.719 102.441 129.531C100.399 127.323 99.3781 124.562 99.3781 121.25C99.3781 118.542 100.139 116.146 101.659 114.062C103.201 111.979 105.295 110.344 107.941 109.156C110.607 107.969 113.628 107.375 117.003 107.375C121.753 107.375 125.482 108.417 128.191 110.5C130.92 112.583 132.857 115.333 134.003 118.75ZM141.58 156V108H148.955V156H141.58ZM145.33 100C143.892 100 142.653 99.5104 141.611 98.5312C140.59 97.5521 140.08 96.375 140.08 95C140.08 93.625 140.59 92.4479 141.611 91.4687C142.653 90.4896 143.892 90 145.33 90C146.767 90 147.996 90.4896 149.017 91.4687C150.059 92.4479 150.58 93.625 150.58 95C150.58 96.375 150.059 97.5521 149.017 98.5312C147.996 99.5104 146.767 100 145.33 100ZM177.438 175C173.875 175 170.813 174.542 168.25 173.625C165.688 172.729 163.552 171.542 161.844 170.063C160.156 168.604 158.813 167.042 157.813 165.375L163.688 161.25C164.354 162.125 165.198 163.125 166.219 164.25C167.24 165.396 168.635 166.385 170.406 167.219C172.198 168.073 174.542 168.5 177.438 168.5C181.313 168.5 184.51 167.563 187.031 165.688C189.552 163.813 190.813 160.875 190.813 156.875V147.125H190.188C189.646 148 188.875 149.083 187.875 150.375C186.896 151.646 185.479 152.781 183.625 153.781C181.792 154.76 179.313 155.25 176.188 155.25C172.313 155.25 168.833 154.333 165.75 152.5C162.688 150.667 160.26 148 158.469 144.5C156.698 141 155.813 136.75 155.813 131.75C155.813 126.833 156.677 122.552 158.406 118.906C160.135 115.24 162.542 112.406 165.625 110.406C168.708 108.385 172.271 107.375 176.312 107.375C179.438 107.375 181.917 107.896 183.75 108.938C185.604 109.958 187.021 111.125 188 112.437C189 113.729 189.771 114.792 190.313 115.625H191.063V108H198.188V157.375C198.188 161.5 197.25 164.854 195.375 167.438C193.521 170.042 191.021 171.948 187.875 173.156C184.75 174.385 181.271 175 177.438 175ZM177.188 148.625C180.146 148.625 182.646 147.948 184.688 146.594C186.729 145.24 188.281 143.292 189.344 140.75C190.406 138.208 190.938 135.167 190.938 131.625C190.938 128.167 190.417 125.115 189.375 122.469C188.333 119.823 186.792 117.75 184.75 116.25C182.708 114.75 180.188 114 177.188 114C174.063 114 171.458 114.792 169.375 116.375C167.313 117.958 165.76 120.083 164.719 122.75C163.698 125.417 163.188 128.375 163.188 131.625C163.188 134.958 163.708 137.906 164.75 140.469C165.813 143.01 167.375 145.01 169.438 146.469C171.521 147.906 174.104 148.625 177.188 148.625ZM214.663 127.125V156H207.288V108H214.413V115.5H215.038C216.163 113.063 217.871 111.104 220.163 109.625C222.454 108.125 225.413 107.375 229.038 107.375C232.288 107.375 235.131 108.042 237.569 109.375C240.006 110.688 241.902 112.688 243.256 115.375C244.61 118.042 245.288 121.417 245.288 125.5V156H237.913V126C237.913 122.229 236.933 119.292 234.975 117.187C233.017 115.062 230.329 114 226.913 114C224.558 114 222.454 114.51 220.6 115.531C218.767 116.552 217.319 118.042 216.256 120C215.194 121.958 214.663 124.333 214.663 127.125ZM274.489 157C269.864 157 265.874 155.979 262.52 153.938C259.187 151.875 256.614 149 254.802 145.312C253.01 141.604 252.114 137.292 252.114 132.375C252.114 127.458 253.01 123.125 254.802 119.375C256.614 115.604 259.135 112.667 262.364 110.562C265.614 108.437 269.406 107.375 273.739 107.375C276.239 107.375 278.708 107.792 281.145 108.625C283.583 109.458 285.802 110.812 287.802 112.688C289.802 114.542 291.395 117 292.583 120.062C293.77 123.125 294.364 126.896 294.364 131.375V134.5H257.364V128.125H286.864C286.864 125.417 286.322 123 285.239 120.875C284.177 118.75 282.656 117.073 280.677 115.844C278.718 114.615 276.406 114 273.739 114C270.802 114 268.26 114.729 266.114 116.187C263.989 117.625 262.354 119.5 261.208 121.812C260.062 124.125 259.489 126.604 259.489 129.25V133.5C259.489 137.125 260.114 140.198 261.364 142.719C262.635 145.219 264.395 147.125 266.645 148.438C268.895 149.729 271.51 150.375 274.489 150.375C276.427 150.375 278.177 150.104 279.739 149.562C281.322 149 282.687 148.167 283.833 147.062C284.979 145.937 285.864 144.542 286.489 142.875L293.614 144.875C292.864 147.292 291.604 149.417 289.833 151.25C288.062 153.062 285.874 154.479 283.27 155.5C280.666 156.5 277.739 157 274.489 157ZM301.183 156V108H308.308V115.25H308.808C309.683 112.875 311.266 110.948 313.558 109.469C315.849 107.99 318.433 107.25 321.308 107.25C321.849 107.25 322.527 107.26 323.339 107.281C324.152 107.302 324.766 107.333 325.183 107.375V114.875C324.933 114.812 324.36 114.719 323.464 114.594C322.589 114.448 321.662 114.375 320.683 114.375C318.349 114.375 316.266 114.865 314.433 115.844C312.62 116.802 311.183 118.135 310.12 119.844C309.079 121.531 308.558 123.458 308.558 125.625V156H301.183ZM370.75 108V114.25H345.875V108H370.75ZM353.125 96.5H360.5V142.25C360.5 144.333 360.802 145.896 361.406 146.937C362.031 147.958 362.823 148.646 363.781 149C364.76 149.333 365.792 149.5 366.875 149.5C367.688 149.5 368.354 149.458 368.875 149.375C369.396 149.271 369.813 149.187 370.125 149.125L371.625 155.75C371.125 155.937 370.427 156.125 369.531 156.313C368.635 156.521 367.5 156.625 366.125 156.625C364.042 156.625 362 156.177 360 155.281C358.021 154.385 356.375 153.021 355.062 151.188C353.771 149.354 353.125 147.042 353.125 144.25V96.5ZM385.85 127.125V156H378.475V92H385.85V115.5H386.475C387.6 113.021 389.288 111.052 391.538 109.594C393.808 108.115 396.829 107.375 400.6 107.375C403.871 107.375 406.735 108.031 409.194 109.344C411.652 110.635 413.558 112.625 414.913 115.312C416.288 117.979 416.975 121.375 416.975 125.5V156H409.6V126C409.6 122.187 408.61 119.24 406.631 117.156C404.673 115.052 401.954 114 398.475 114C396.058 114 393.892 114.51 391.975 115.531C390.079 116.552 388.579 118.042 387.475 120C386.392 121.958 385.85 124.333 385.85 127.125ZM440.192 157.125C437.151 157.125 434.39 156.552 431.911 155.406C429.432 154.24 427.463 152.562 426.005 150.375C424.546 148.167 423.817 145.5 423.817 142.375C423.817 139.625 424.359 137.396 425.442 135.687C426.526 133.958 427.973 132.604 429.786 131.625C431.598 130.646 433.598 129.917 435.786 129.437C437.994 128.938 440.213 128.542 442.442 128.25C445.359 127.875 447.723 127.594 449.536 127.406C451.369 127.198 452.703 126.854 453.536 126.375C454.39 125.896 454.817 125.062 454.817 123.875V123.625C454.817 120.542 453.973 118.146 452.286 116.437C450.619 114.729 448.088 113.875 444.692 113.875C441.171 113.875 438.411 114.646 436.411 116.187C434.411 117.729 433.005 119.375 432.192 121.125L425.192 118.625C426.442 115.708 428.109 113.437 430.192 111.812C432.296 110.167 434.588 109.021 437.067 108.375C439.567 107.708 442.026 107.375 444.442 107.375C445.984 107.375 447.755 107.562 449.755 107.937C451.776 108.292 453.723 109.031 455.598 110.156C457.494 111.281 459.067 112.979 460.317 115.25C461.567 117.521 462.192 120.562 462.192 124.375V156H454.817V149.5H454.442C453.942 150.542 453.109 151.656 451.942 152.844C450.776 154.031 449.223 155.042 447.286 155.875C445.348 156.708 442.984 157.125 440.192 157.125ZM441.317 150.5C444.234 150.5 446.692 149.927 448.692 148.781C450.713 147.635 452.234 146.156 453.255 144.344C454.296 142.531 454.817 140.625 454.817 138.625V131.875C454.505 132.25 453.817 132.594 452.755 132.906C451.713 133.198 450.505 133.458 449.13 133.687C447.776 133.896 446.453 134.083 445.161 134.25C443.89 134.396 442.859 134.521 442.067 134.625C440.151 134.875 438.359 135.281 436.692 135.844C435.046 136.385 433.713 137.208 432.692 138.312C431.692 139.396 431.192 140.875 431.192 142.75C431.192 145.312 432.14 147.25 434.036 148.562C435.953 149.854 438.38 150.5 441.317 150.5ZM492.128 108V114.25H467.253V108H492.128ZM474.503 96.5H481.878V142.25C481.878 144.333 482.18 145.896 482.784 146.937C483.409 147.958 484.201 148.646 485.159 149C486.139 149.333 487.17 149.5 488.253 149.5C489.066 149.5 489.732 149.458 490.253 149.375C490.774 149.271 491.191 149.187 491.503 149.125L493.003 155.75C492.503 155.937 491.805 156.125 490.909 156.313C490.014 156.521 488.878 156.625 487.503 156.625C485.42 156.625 483.378 156.177 481.378 155.281C479.399 154.385 477.753 153.021 476.441 151.188C475.149 149.354 474.503 147.042 474.503 144.25V96.5ZM72.4375 210.75L65.8125 212.625C65.3958 211.521 64.7813 210.448 63.9688 209.406C63.1771 208.344 62.0938 207.469 60.7188 206.781C59.3438 206.094 57.5833 205.75 55.4375 205.75C52.5 205.75 50.0521 206.427 48.0938 207.781C46.1563 209.115 45.1875 210.812 45.1875 212.875C45.1875 214.708 45.8542 216.156 47.1875 217.219C48.5208 218.281 50.6042 219.167 53.4375 219.875L60.5625 221.625C64.8542 222.667 68.0521 224.26 70.1563 226.406C72.2604 228.531 73.3125 231.271 73.3125 234.625C73.3125 237.375 72.5208 239.833 70.9375 242C69.375 244.167 67.1875 245.875 64.375 247.125C61.5625 248.375 58.2917 249 54.5625 249C49.6667 249 45.6146 247.938 42.4063 245.812C39.1979 243.687 37.1667 240.583 36.3125 236.5L43.3125 234.75C43.9792 237.333 45.2396 239.271 47.0938 240.562C48.9688 241.854 51.4167 242.5 54.4375 242.5C57.875 242.5 60.6042 241.771 62.625 240.312C64.6667 238.833 65.6875 237.062 65.6875 235C65.6875 233.333 65.1042 231.937 63.9375 230.812C62.7708 229.667 60.9792 228.812 58.5625 228.25L50.5625 226.375C46.1667 225.333 42.9375 223.719 40.875 221.531C38.8333 219.323 37.8125 216.562 37.8125 213.25C37.8125 210.542 38.5729 208.146 40.0938 206.062C41.6354 203.979 43.7292 202.344 46.375 201.156C49.0417 199.969 52.0625 199.375 55.4375 199.375C60.1875 199.375 63.9167 200.417 66.625 202.5C69.3542 204.583 71.2917 207.333 72.4375 210.75ZM80.0141 266V200H87.1391V207.625H88.0141C88.5557 206.792 89.3057 205.729 90.2641 204.437C91.2432 203.125 92.6391 201.958 94.4516 200.938C96.2849 199.896 98.7641 199.375 101.889 199.375C105.931 199.375 109.493 200.385 112.577 202.406C115.66 204.427 118.066 207.292 119.795 211C121.524 214.708 122.389 219.083 122.389 224.125C122.389 229.208 121.524 233.615 119.795 237.344C118.066 241.052 115.67 243.927 112.608 245.969C109.545 247.99 106.014 249 102.014 249C98.9307 249 96.462 248.49 94.6078 247.469C92.7536 246.427 91.3266 245.25 90.3266 243.937C89.3266 242.604 88.5557 241.5 88.0141 240.625H87.3891V266H80.0141ZM87.2641 224C87.2641 227.625 87.7953 230.823 88.8578 233.594C89.9203 236.344 91.4724 238.5 93.5141 240.062C95.5557 241.604 98.0557 242.375 101.014 242.375C104.097 242.375 106.67 241.563 108.733 239.937C110.816 238.292 112.379 236.083 113.42 233.312C114.483 230.521 115.014 227.417 115.014 224C115.014 220.625 114.493 217.583 113.452 214.875C112.431 212.146 110.879 209.99 108.795 208.406C106.733 206.802 104.139 206 101.014 206C98.0141 206 95.4932 206.76 93.4516 208.281C91.4099 209.781 89.8682 211.885 88.8266 214.594C87.7849 217.281 87.2641 220.417 87.2641 224ZM149.364 249C144.739 249 140.749 247.979 137.395 245.938C134.062 243.875 131.489 241 129.677 237.312C127.885 233.604 126.989 229.292 126.989 224.375C126.989 219.458 127.885 215.125 129.677 211.375C131.489 207.604 134.01 204.667 137.239 202.562C140.489 200.437 144.281 199.375 148.614 199.375C151.114 199.375 153.583 199.792 156.02 200.625C158.458 201.458 160.677 202.812 162.677 204.688C164.677 206.542 166.27 209 167.458 212.062C168.645 215.125 169.239 218.896 169.239 223.375V226.5H132.239V220.125H161.739C161.739 217.417 161.197 215 160.114 212.875C159.052 210.75 157.531 209.073 155.552 207.844C153.593 206.615 151.281 206 148.614 206C145.677 206 143.135 206.729 140.989 208.187C138.864 209.625 137.229 211.5 136.083 213.812C134.937 216.125 134.364 218.604 134.364 221.25V225.5C134.364 229.125 134.989 232.198 136.239 234.719C137.51 237.219 139.27 239.125 141.52 240.438C143.77 241.729 146.385 242.375 149.364 242.375C151.302 242.375 153.052 242.104 154.614 241.562C156.197 241 157.562 240.167 158.708 239.062C159.854 237.937 160.739 236.542 161.364 234.875L168.489 236.875C167.739 239.292 166.479 241.417 164.708 243.25C162.937 245.062 160.749 246.479 158.145 247.5C155.541 248.5 152.614 249 149.364 249ZM190.183 249.125C187.141 249.125 184.381 248.552 181.902 247.406C179.422 246.24 177.454 244.562 175.995 242.375C174.537 240.167 173.808 237.5 173.808 234.375C173.808 231.625 174.349 229.396 175.433 227.687C176.516 225.958 177.964 224.604 179.777 223.625C181.589 222.646 183.589 221.917 185.777 221.437C187.985 220.938 190.204 220.542 192.433 220.25C195.349 219.875 197.714 219.594 199.527 219.406C201.36 219.198 202.693 218.854 203.527 218.375C204.381 217.896 204.808 217.062 204.808 215.875V215.625C204.808 212.542 203.964 210.146 202.277 208.437C200.61 206.729 198.079 205.875 194.683 205.875C191.162 205.875 188.402 206.646 186.402 208.187C184.402 209.729 182.995 211.375 182.183 213.125L175.183 210.625C176.433 207.708 178.099 205.437 180.183 203.812C182.287 202.167 184.579 201.021 187.058 200.375C189.558 199.708 192.016 199.375 194.433 199.375C195.974 199.375 197.745 199.562 199.745 199.937C201.766 200.292 203.714 201.031 205.589 202.156C207.485 203.281 209.058 204.979 210.308 207.25C211.558 209.521 212.183 212.562 212.183 216.375V248H204.808V241.5H204.433C203.933 242.542 203.099 243.656 201.933 244.844C200.766 246.031 199.214 247.042 197.277 247.875C195.339 248.708 192.974 249.125 190.183 249.125ZM191.308 242.5C194.224 242.5 196.683 241.927 198.683 240.781C200.704 239.635 202.224 238.156 203.245 236.344C204.287 234.531 204.808 232.625 204.808 230.625V223.875C204.495 224.25 203.808 224.594 202.745 224.906C201.704 225.198 200.495 225.458 199.12 225.687C197.766 225.896 196.443 226.083 195.152 226.25C193.881 226.396 192.849 226.521 192.058 226.625C190.141 226.875 188.349 227.281 186.683 227.844C185.037 228.385 183.704 229.208 182.683 230.312C181.683 231.396 181.183 232.875 181.183 234.75C181.183 237.312 182.131 239.25 184.027 240.562C185.943 241.854 188.37 242.5 191.308 242.5ZM228.119 230.5L227.994 221.375H229.494L250.494 200H259.619L237.244 222.625H236.619L228.119 230.5ZM221.244 248V184H228.619V248H221.244ZM251.744 248L232.994 224.25L238.244 219.125L261.119 248H251.744ZM298.711 210.75L292.086 212.625C291.669 211.521 291.055 210.448 290.242 209.406C289.451 208.344 288.367 207.469 286.992 206.781C285.617 206.094 283.857 205.75 281.711 205.75C278.773 205.75 276.326 206.427 274.367 207.781C272.43 209.115 271.461 210.812 271.461 212.875C271.461 214.708 272.128 216.156 273.461 217.219C274.794 218.281 276.878 219.167 279.711 219.875L286.836 221.625C291.128 222.667 294.326 224.26 296.43 226.406C298.534 228.531 299.586 231.271 299.586 234.625C299.586 237.375 298.794 239.833 297.211 242C295.648 244.167 293.461 245.875 290.648 247.125C287.836 248.375 284.565 249 280.836 249C275.94 249 271.888 247.938 268.68 245.812C265.471 243.687 263.44 240.583 262.586 236.5L269.586 234.75C270.253 237.333 271.513 239.271 273.367 240.562C275.242 241.854 277.69 242.5 280.711 242.5C284.148 242.5 286.878 241.771 288.898 240.312C290.94 238.833 291.961 237.062 291.961 235C291.961 233.333 291.378 231.937 290.211 230.812C289.044 229.667 287.253 228.812 284.836 228.25L276.836 226.375C272.44 225.333 269.211 223.719 267.148 221.531C265.107 219.323 264.086 216.562 264.086 213.25C264.086 210.542 264.846 208.146 266.367 206.062C267.909 203.979 270.003 202.344 272.648 201.156C275.315 199.969 278.336 199.375 281.711 199.375C286.461 199.375 290.19 200.417 292.898 202.5C295.628 204.583 297.565 207.333 298.711 210.75ZM344.763 249C340.763 249 337.231 247.99 334.169 245.969C331.106 243.927 328.71 241.052 326.981 237.344C325.252 233.615 324.388 229.208 324.388 224.125C324.388 219.083 325.252 214.708 326.981 211C328.71 207.292 331.117 204.427 334.2 202.406C337.283 200.385 340.846 199.375 344.888 199.375C348.013 199.375 350.481 199.896 352.294 200.938C354.127 201.958 355.523 203.125 356.481 204.437C357.46 205.729 358.221 206.792 358.763 207.625H359.388V184H366.763V248H359.638V240.625H358.763C358.221 241.5 357.45 242.604 356.45 243.937C355.45 245.25 354.023 246.427 352.169 247.469C350.315 248.49 347.846 249 344.763 249ZM345.763 242.375C348.721 242.375 351.221 241.604 353.263 240.062C355.304 238.5 356.856 236.344 357.919 233.594C358.981 230.823 359.513 227.625 359.513 224C359.513 220.417 358.992 217.281 357.95 214.594C356.908 211.885 355.367 209.781 353.325 208.281C351.283 206.76 348.763 206 345.763 206C342.638 206 340.033 206.802 337.95 208.406C335.888 209.99 334.335 212.146 333.294 214.875C332.273 217.583 331.763 220.625 331.763 224C331.763 227.417 332.283 230.521 333.325 233.312C334.388 236.083 335.95 238.292 338.013 239.937C340.096 241.563 342.679 242.375 345.763 242.375ZM397.019 249C392.394 249 388.404 247.979 385.05 245.938C381.717 243.875 379.144 241 377.331 237.312C375.54 233.604 374.644 229.292 374.644 224.375C374.644 219.458 375.54 215.125 377.331 211.375C379.144 207.604 381.665 204.667 384.894 202.562C388.144 200.437 391.935 199.375 396.269 199.375C398.769 199.375 401.237 199.792 403.675 200.625C406.112 201.458 408.331 202.812 410.331 204.688C412.331 206.542 413.925 209 415.112 212.062C416.3 215.125 416.894 218.896 416.894 223.375V226.5H379.894V220.125H409.394C409.394 217.417 408.852 215 407.769 212.875C406.706 210.75 405.185 209.073 403.206 207.844C401.248 206.615 398.935 206 396.269 206C393.331 206 390.79 206.729 388.644 208.187C386.519 209.625 384.883 211.5 383.737 213.812C382.592 216.125 382.019 218.604 382.019 221.25V225.5C382.019 229.125 382.644 232.198 383.894 234.719C385.165 237.219 386.925 239.125 389.175 240.438C391.425 241.729 394.04 242.375 397.019 242.375C398.956 242.375 400.706 242.104 402.269 241.562C403.852 241 405.217 240.167 406.362 239.062C407.508 237.937 408.394 236.542 409.019 234.875L416.144 236.875C415.394 239.292 414.133 241.417 412.362 243.25C410.592 245.062 408.404 246.479 405.8 247.5C403.196 248.5 400.269 249 397.019 249ZM461.502 200L443.752 248H436.252L418.502 200H426.502L439.752 238.25H440.252L453.502 200H461.502ZM469.203 248.5C467.661 248.5 466.339 247.948 465.234 246.844C464.13 245.74 463.578 244.417 463.578 242.875C463.578 241.333 464.13 240.01 465.234 238.906C466.339 237.802 467.661 237.25 469.203 237.25C470.745 237.25 472.068 237.802 473.172 238.906C474.276 240.01 474.828 241.333 474.828 242.875C474.828 243.896 474.568 244.833 474.047 245.687C473.547 246.542 472.87 247.229 472.016 247.75C471.182 248.25 470.245 248.5 469.203 248.5Z" fill="#ECECE9"/>
</svg>
