<svg width="32" height="32" viewBox="0 0 32 32" fill="none" xmlns="http://www.w3.org/2000/svg">
<path d="M29.3878 6H32V26H29.3878V6Z" fill="#ECECE9"/>
<path d="M9.79592 6C7.19788 6 4.70625 7.05357 2.86916 8.92893C1.03207 10.8043 2.22547e-07 13.3478 2.64001e-08 16C-1.69746e-07 18.6522 1.03207 21.1957 2.86916 23.0711C4.70625 24.9464 7.19788 26 9.79592 26L9.79592 6Z" fill="#ECECE9"/>
<path d="M19.5918 6C25.002 6 29.3878 10.4772 29.3878 16C29.3878 21.5228 25.002 26 19.5918 26C14.1817 26 9.79592 21.5228 9.79592 16C9.79592 10.4772 14.1817 6 19.5918 6Z" fill="#ECECE9"/>
</svg>
